<?xml version="1.0" encoding="UTF-8" standalone="no"?>
<!DOCTYPE svg PUBLIC "-//W3C//DTD SVG 1.1//EN" "http://www.w3.org/Graphics/SVG/1.1/DTD/svg11.dtd">
<svg width="100%" height="100%" viewBox="0 0 1226 1006" version="1.1" xmlns="http://www.w3.org/2000/svg" xmlns:xlink="http://www.w3.org/1999/xlink" xml:space="preserve" xmlns:serif="http://www.serif.com/" style="fill-rule:evenodd;clip-rule:evenodd;stroke-linejoin:round;stroke-miterlimit:2;">
    <g transform="matrix(6.1149e-17,1,-1,6.1149e-17,1448.33,-166.597)">
        <path d="M987.308,1422.82C984.83,1422.05 981.445,1421.54 979.032,1421.47C969.746,1421.18 960.109,1420.94 950.835,1421.45C935.805,1423.12 920.719,1423.85 906.164,1425.48C904.727,1425.5 902.564,1425.82 901.481,1425.05C900.766,1423.95 900.394,1422.94 899.125,1422.6C898.028,1422.31 896.344,1422.45 895.069,1422.48C892.021,1422.56 887.546,1423.15 884.744,1424.45C883.527,1425.01 882.554,1426.35 882.738,1427.89C882.871,1429 883.646,1429.63 884.743,1430.16C886.146,1430.83 887.621,1431.14 888.932,1431.26C896.099,1431.89 903.974,1431.72 911.158,1431.33C925.605,1430.53 939.806,1428.14 954.181,1427.33C965.427,1426.68 977.16,1428.11 988.1,1427.76C988.852,1427.18 989.354,1425.93 989.24,1424.87C989.119,1423.75 988.372,1423.16 987.308,1422.82M981.27,1411.73C980.537,1412.9 980.39,1414.7 981.024,1416.02C981.541,1417.1 982.662,1418.17 983.707,1418.96C986.346,1420.4 988.985,1421.84 991.624,1423.28C993.555,1425.59 996.477,1428.43 996.812,1430.65C996.577,1431.82 993.995,1433.16 992.625,1433.84C988.528,1435.85 984.261,1437.65 979.856,1439.62C978.165,1439.95 976.473,1440.28 974.781,1440.6C974.204,1440.85 973.934,1441.19 973.991,1441.95C974.072,1443.04 974.882,1443.87 975.837,1444.15C979.656,1444.86 983.512,1443.18 987.153,1441.91C991.853,1440.05 998.011,1438.18 1002.25,1435.82C1003.35,1435.2 1004.06,1434.13 1004.32,1433.01C1004.62,1431.69 1004.57,1430.05 1004.06,1428.77C1003.24,1426.7 1001.62,1424.42 1000.13,1422.61C995.138,1416.65 989.295,1413.83 985.032,1410.56C983.583,1410.24 982.026,1410.54 981.27,1411.73M712.696,1403.59C713.218,1406.68 713.978,1409.57 713.492,1412.71C712.596,1414.45 711.7,1416.19 710.804,1417.93C710.904,1418.92 711.839,1419.79 712.993,1419.84C714.134,1419.88 715.107,1419.11 715.913,1418.13C717.049,1416.76 717.385,1415.41 717.441,1414.01C717.547,1411.34 717.709,1408.46 717.029,1405.77C716.778,1404.78 716.421,1403.49 715.752,1402.67C715.237,1402.05 714.713,1401.73 714.029,1401.74C712.996,1401.75 712.69,1402.6 712.696,1403.59M791.334,1402.68C789.932,1401.37 788.513,1400.63 787.12,1400.14C783.99,1398.99 780.987,1399.39 777.918,1400.29C773.199,1401.48 768.399,1403.42 763.731,1406.75C762.47,1407.86 761.316,1409.33 760.857,1410.74C760.523,1411.76 760.454,1412.94 760.671,1413.98C761.629,1416.74 764.388,1419.9 766.792,1421.55C768.801,1422.69 773.447,1423.91 775.914,1424.27C777.498,1424.49 779.561,1424.55 781.132,1424.04C783.138,1423.38 785.457,1421.61 787.297,1420.02C788.968,1418.57 790.337,1416.81 791.521,1415.1C792.511,1413.67 793.046,1412.39 793.289,1410.96C793.561,1409.36 793.741,1407.36 793.361,1405.76C793.108,1404.7 792.403,1403.68 791.334,1402.68M786.549,1412.63C784.941,1414.48 782.622,1416.93 780.868,1417.33C778.082,1417.95 773.908,1416.89 771.174,1416C769.735,1415.53 766.551,1414.1 766.19,1412.7C765.918,1411.64 767.194,1410.57 768.329,1409.93C772.729,1407.49 777.621,1405.56 781.993,1404.72C783.364,1404.46 784.45,1404.66 785.761,1405.31C787.069,1405.96 788.215,1406.79 788.389,1408.02C788.592,1409.46 787.87,1411.1 786.549,1412.63M687.945,1399.84C686.734,1399.9 686,1400.75 685.742,1401.67C685.637,1408.9 685.532,1416.12 685.427,1423.35C681.374,1424.9 675.753,1425.96 670.692,1427.3C669.7,1427.57 668.826,1428.02 669.226,1428.67C676.094,1428.51 685.286,1428.18 693.065,1428.13C695.035,1427.82 697.272,1427.38 699.203,1426.4C700.186,1425.9 701.423,1425.07 702.261,1424.06C703.171,1422.98 703.39,1422 703.261,1420.83C703.144,1419.76 702.736,1418.5 701.943,1417.99C701.405,1417.65 700.66,1417.63 699.947,1417.89C698.279,1418.96 696.61,1420.03 694.941,1421.11C693.774,1421.49 692.362,1421.21 691.77,1420.32C690.894,1415.31 691.432,1409.17 691.43,1403.7C691.371,1402.71 691.164,1401.59 690.151,1400.68C689.467,1400.07 688.802,1399.79 687.945,1399.84M635.842,1399.91C633.555,1401.02 630.261,1404.74 629.511,1406.67C627.245,1414.27 626.801,1421.27 625.563,1428.85C625.522,1430.19 625.531,1432.01 626.962,1432.72C627.615,1433.03 628.448,1432.97 629.075,1432.65C629.776,1432.3 630.057,1431.78 630.295,1431.15C631.576,1424.22 632.06,1417.11 634.033,1410.11C634.371,1408.86 635.016,1407.37 636.12,1406.56C636.949,1405.96 637.344,1406.34 637.789,1407.32C639.471,1411.89 638.838,1416.51 642.129,1421.06C642.952,1421.96 643.92,1422.33 645.122,1422.06C646.301,1421.79 647.042,1421.03 647.271,1420.08C646.924,1414.68 644.924,1409.06 643.479,1403.68C642.971,1402.36 641.731,1400.68 640.18,1399.92C638.835,1399.26 637.158,1399.27 635.842,1399.91M754.949,1398.86C747.49,1400.64 740.123,1402.85 732.826,1405.51C731.58,1405.96 729.727,1406.59 729.063,1407.87C728.54,1408.88 728.869,1409.99 729.759,1411.07C730.593,1412.08 731.81,1412.88 732.777,1413.4C739.339,1415.89 746.558,1417.29 752.359,1420.55C752.787,1420.96 752.796,1421.26 752.379,1421.87C751.636,1422.95 749.945,1423.97 748.834,1424.41C746.232,1425.92 742.31,1423.26 740.123,1425.04C739.361,1426.02 740.288,1427.85 741.727,1428.84C743.181,1429.97 744.559,1430.32 745.954,1430.34C747.914,1430.36 750.258,1429.95 752.187,1428.99C753.811,1428.18 756.004,1426.6 757.104,1425.06C757.78,1424.12 758.241,1422.92 758.176,1421.86C758.208,1420.06 755.87,1418.11 754.258,1417.13C748.951,1415.05 743.644,1412.97 738.336,1410.89C741.662,1408.62 748.983,1407.76 754.218,1405.89C756.86,1404.59 760.261,1402.71 762.269,1401.3C763.076,1400.74 763.48,1399.84 762.89,1399.12C760.988,1398.02 757.513,1398.47 754.949,1398.86M663.561,1404.74C663.294,1409.65 663.185,1415.01 663.62,1419.92C663.744,1421.31 664,1423.84 665.099,1424.99C665.584,1425.49 666.342,1425.76 666.981,1425.58C668.123,1425.24 668.361,1424.07 668.437,1423.04C668.918,1416.48 668.84,1409.3 668.437,1402.74C668.375,1401.72 668.176,1400.63 667.167,1399.68C666.479,1399.04 665.754,1398.7 665.032,1398.72C663.034,1399.17 663.717,1402.58 663.561,1404.74M608.117,1399.03C607.236,1399.42 606.396,1400.69 605.967,1401.72C604.675,1404.84 606.775,1407.81 606.354,1410.85C606.198,1413.65 606.369,1417.34 604.706,1418.68C603.34,1419.13 597.988,1420.19 596.054,1420.32C594.926,1420.4 593.375,1420.14 592.824,1419.34C593.008,1416.85 593.192,1414.35 593.375,1411.85C592.642,1408.86 592.827,1405.72 590.869,1402.69C590.298,1402.04 589.816,1401.71 588.975,1401.73C587.785,1401.75 586.986,1402.68 586.703,1403.72C586.271,1407.2 586.716,1410.8 586.962,1413.96C586.765,1415.89 586.362,1418.89 585.266,1420.46C584.72,1421.25 583.801,1421.86 582.817,1422.17C580.288,1422.98 577.351,1422.57 574.705,1422.53C573.714,1422.63 572.846,1422.99 573.217,1423.87C575.113,1425.78 579.256,1425.9 582.022,1426.32C584.729,1425.99 587.436,1425.67 590.143,1425.34C592.776,1425.65 595.409,1425.95 598.042,1426.26C599.919,1426.11 603.458,1425.76 605.065,1424.86C606.343,1424.14 608.031,1422.27 609.124,1420.97C610.118,1419.79 610.674,1418.37 611.028,1416.98C612.02,1411.24 611.036,1405.19 610.905,1399.84C610.269,1399.01 609.041,1398.61 608.117,1399.03M562.849,1396.94C562.159,1397.24 561.43,1398.01 561.073,1398.61C559.629,1402.98 558.186,1407.34 556.742,1411.71C551.271,1420.48 545.282,1430.38 541.077,1438C540.722,1438.88 541.072,1440.17 542.012,1440.76C542.956,1441.35 544.102,1441.01 545.167,1440.14C547.275,1437.17 549.384,1434.19 551.492,1431.21C552.826,1429.67 554.589,1428.15 556.159,1427.62C557.575,1427.14 559.504,1427.16 560.929,1427.44C562.98,1428.26 565.03,1429.07 567.08,1429.88C567.789,1429.81 568.477,1429.44 568.694,1428.85C569.193,1427.36 566.885,1425.21 565.299,1423.69C563.193,1421.67 559.865,1422.88 559.593,1420.74C561.578,1416.48 564.752,1410.86 566.22,1405.95C566.631,1404.08 566.418,1400.75 566.135,1398.75C566.038,1398.06 565.786,1397.41 565.067,1397C564.473,1396.65 563.6,1396.61 562.849,1396.94M388.63,1414.49C391.548,1416.61 394.724,1418.23 397.807,1419.76C406.663,1423.04 414.937,1426.45 424.089,1429.12C424.819,1428.99 425.458,1428.66 425.825,1427.94C426.348,1426.91 425.913,1425.7 425.153,1424.92C420.735,1421.81 410.361,1418.01 409.484,1416.58C428.822,1414.16 449.361,1413.78 469.184,1411.32C481.048,1410.66 493.297,1411.33 505.098,1410.27C506.576,1410.14 508.815,1409.74 510.211,1408.66C511.073,1407.99 511.5,1407.04 511.281,1405.84C511.067,1404.24 509.518,1403.38 508.149,1403.46C493.975,1404.87 479.741,1404.89 465.819,1405.45C445.455,1407.79 425.178,1408.64 404.806,1410.56C403.47,1411.58 402.133,1412.6 400.797,1413.62C400.142,1413.75 399.06,1413.02 398.467,1412.36C397.83,1411.65 397.823,1411.05 398.534,1410.53C404.414,1408.59 413.113,1404.47 418.96,1400.89C419.576,1399.88 419.597,1397.86 418.898,1396.85C418.322,1396.01 417.17,1395.6 416.067,1395.6C407.05,1398.96 398.546,1404.03 389.767,1407.39C388.741,1407.94 387.624,1408.72 387.058,1409.78C386.69,1410.46 386.572,1411.24 386.686,1411.93C386.869,1413.03 387.622,1413.76 388.63,1414.49M811.231,1392.01C810.798,1392.35 810.687,1393.07 810.631,1393.73C810.084,1400.16 811.727,1405.94 811.544,1411.84C811.465,1414.37 811.295,1419.42 810.134,1421.66C803.675,1427.89 794.613,1432.05 787.878,1438.82C786.862,1440.13 786.293,1442.43 786.649,1443.97C786.893,1445.03 787.644,1445.77 788.744,1446.36C791.309,1447.74 794.512,1448.24 796.978,1448.31C801.534,1448.45 806.547,1447.86 811.065,1447.13C815.01,1446.5 819.276,1445.46 823.202,1443.7C824.514,1443.12 826.268,1442.12 826.949,1440.94C827.598,1439.82 827.619,1438.03 826.913,1436.71C826.019,1435.03 823.069,1432.82 822.261,1433.2C821.093,1433.98 823.891,1437.06 822.459,1438.66C820.455,1441.12 817.413,1440.22 814.862,1442.14C809.578,1443.45 804.321,1441.96 799.048,1443.4C796.988,1443.4 793.884,1442.68 793.342,1441.49C795.071,1438.57 800.13,1435.92 803.262,1433.34C808.198,1430.17 813.134,1427 818.07,1423.83C819.222,1423.01 821.216,1420.26 821.647,1418.84C822.452,1416.33 817.291,1419.35 817.513,1416.68C817.428,1411.04 817.343,1405.4 817.257,1399.76C816.358,1397.29 815.805,1393.71 813.088,1391.93C812.409,1391.63 811.662,1391.66 811.231,1392.01M349.792,1342.19C355.319,1343.54 362.086,1344.01 367.833,1344.33C388.28,1343.51 408.727,1343 429.173,1343.32C437.625,1342.86 445.748,1341.8 454.171,1341.33C459.837,1341.66 465.504,1342 471.171,1342.33C489.234,1341.32 507.164,1339.33 525.169,1338.33C543.723,1338.33 562.277,1338.33 580.831,1338.33C590.245,1338.85 599.388,1339.8 608.815,1340.32C625.721,1341.26 642.893,1340.39 659.815,1341.32C698.578,1343.47 737.467,1347.15 775.833,1349.32C799.756,1352.8 822.983,1353.11 846.948,1357.26C884.721,1359.79 922.835,1361.37 960.832,1363.33C978.237,1364.29 996.763,1364.29 1014.17,1363.33C1017.4,1363.15 1021.07,1362.66 1024.1,1362.14C1027.66,1361.16 1031.81,1360.1 1035.09,1357.95C1036.3,1356.83 1038.14,1353.7 1038.36,1351.91C1038.48,1350.83 1038.15,1349.63 1037.17,1348.7C1036.48,1348.04 1035.77,1347.7 1035.04,1347.71C1033.8,1347.73 1030.29,1353.19 1027.8,1354.23C1022.18,1356.48 1016.43,1354.52 1010.83,1356.45C995.282,1357.32 978.718,1357.32 963.167,1356.45C961.506,1356.12 959.846,1355.79 958.185,1355.45C942.939,1354.61 927.44,1355.3 912.185,1354.45C891.147,1353.28 870.173,1351.62 849.188,1350.45C836.806,1348.81 824.424,1347.17 812.042,1345.53C808.412,1345.84 804.782,1346.14 801.151,1346.45C793.83,1345.45 786.508,1344.45 779.186,1343.46C775.184,1343.64 771.141,1343.74 767.143,1343.39C745.281,1341.5 723.783,1339.4 702.041,1337.52C662.825,1335.33 623.554,1335.12 584.17,1332.45C563.39,1332.45 542.61,1332.45 521.83,1332.45C490.076,1334.21 458.502,1336.69 426.825,1338.45C412.936,1337.69 398.916,1338.03 385.009,1338.46C382.354,1338.79 379.699,1339.11 377.044,1339.44C373.516,1339.46 369.506,1339.82 366.285,1338.61C365.754,1338.41 365.289,1338.15 365.313,1337.9C365.778,1337.81 367.244,1337.08 367.138,1335.87C367.088,1335.3 366.738,1335.05 366.085,1335.07C363.681,1336.02 361.278,1336.97 358.875,1337.93C355.527,1337.54 352.18,1337.14 348.832,1336.75C347.752,1336.96 346.848,1337.73 346.836,1338.88C346.764,1340.42 348.461,1342.03 349.792,1342.19M1067.19,1261.19C1066.28,1260.59 1065.05,1260.49 1064.01,1260.68C1059.49,1261.5 1054.84,1261.71 1050.86,1262.92C1049.25,1263.52 1046.8,1264.18 1046.85,1265.93C1046.82,1267.34 1048.49,1268.17 1049.93,1268.24C1056,1266.75 1061.74,1267.96 1067.12,1265.78C1067.87,1265.18 1068.38,1263.93 1068.25,1262.86C1068.15,1262.09 1067.84,1261.63 1067.19,1261.19M1103.63,1231.65C1103.46,1233.32 1103.51,1235.22 1103.76,1236.89C1104.72,1243.32 1105.78,1250.94 1107.87,1257.08C1108.8,1260.97 1114.85,1262.26 1115.09,1265.06C1114.18,1268.37 1113.33,1272.11 1113.55,1276.03C1113.67,1278.14 1116.11,1279.4 1115.89,1281C1115.65,1282.71 1114.93,1287.26 1114.15,1288.43C1113.3,1289.65 1110.82,1290.01 1110.69,1291.8C1110.47,1292.75 1110.54,1294 1110.86,1295.01C1111.54,1297.14 1113.85,1300.67 1115.82,1301.86C1119.36,1304.69 1123.41,1303.68 1126.53,1305.35C1128,1306.7 1128.48,1308.38 1128.53,1309.87C1128.55,1310.74 1128.58,1311.78 1128.19,1312.39C1127.76,1313.07 1126.92,1313.29 1125.97,1313.13C1122.96,1312.64 1119.1,1311.77 1116.15,1310.79C1112.45,1309.03 1108.75,1307.27 1105.05,1305.51C1103.41,1305.2 1100.01,1304.99 1099.13,1305.95C1098.26,1308.28 1098.45,1312.05 1099.02,1314.98C1099.94,1318.12 1101.28,1321.19 1103.03,1324.23C1103.85,1325.66 1104.55,1326.95 1105.99,1327.18C1106.64,1327.28 1107.44,1327.16 1108.02,1326.74C1108.58,1326.33 1108.88,1325.68 1108.75,1325.09C1106.24,1322.44 1103.84,1317.54 1102.76,1313.87C1102.38,1312.57 1102.54,1310.35 1103.55,1309.79C1110.72,1311.95 1119.17,1317.08 1126.93,1318.92C1128.24,1319.24 1129.77,1319.52 1131.12,1319.2C1132.22,1318.95 1133.33,1318.22 1133.94,1317.09C1135.16,1314.24 1133.76,1311.5 1133.36,1308.76C1132.57,1307.12 1131.79,1305.48 1131.01,1303.85C1132.14,1301.56 1133.26,1299.26 1134.39,1296.97C1135.18,1292.51 1132.31,1287.99 1131.73,1283.9C1131.86,1281.64 1134.82,1278.49 1135.25,1275.93C1135.7,1273.29 1135.19,1270.34 1134.38,1267.72C1133.3,1264.86 1128.93,1261.04 1126.16,1258.91C1123.63,1257.43 1119.62,1259.77 1119.06,1258.48C1118.93,1257.28 1123.53,1249.23 1124.25,1249.2C1125.75,1249.15 1129.1,1252.62 1130.28,1254.18C1131.79,1256.16 1133.89,1262.15 1134.4,1262.45C1134.97,1262.79 1135.94,1262 1136.26,1261.04C1136.56,1260.14 1136.44,1258.93 1136.41,1257.95C1136.34,1255.13 1135.43,1250.15 1133.96,1247.81C1132.7,1245.79 1128.26,1242.84 1126.09,1242.51C1124.36,1242.25 1121.33,1242.03 1119.95,1242.9C1117.27,1245.35 1117.05,1249.32 1115.19,1252.43C1114.61,1253.4 1114.12,1253.88 1113.66,1253.22C1112.87,1250.04 1112.09,1246.87 1111.3,1243.69C1110.32,1241.24 1105.85,1230.57 1104.84,1230.1C1104.1,1229.75 1103.74,1230.63 1103.63,1231.65M1125.44,1283.47C1126.82,1285.03 1128.28,1289.73 1128.45,1291.88C1128.57,1293.31 1128.26,1295.29 1127.34,1296.39C1126.64,1297.23 1125.12,1298.03 1124.03,1297.99C1122.59,1297.97 1120.71,1296.23 1120.52,1294.68C1120.06,1292.53 1119.39,1288.15 1119.75,1286.01C1120,1284.47 1120.96,1282.7 1122.16,1282.44C1123.2,1282.21 1124.66,1282.61 1125.44,1283.47M1125.75,1265.36C1126.88,1266.49 1127.89,1267.88 1128.31,1269.11C1128.74,1270.38 1129.17,1272.51 1129.05,1273.78C1128.93,1275.05 1127.94,1276.15 1126.86,1276.36C1124.88,1276.56 1121.36,1274.62 1120.1,1272.62C1119.62,1271.18 1120.97,1267.67 1121.44,1266.09C1121.71,1265.17 1122.2,1264.18 1123.08,1263.99C1123.95,1263.8 1124.86,1264.48 1125.75,1265.36M223.063,1220.49C220.644,1220.28 217.192,1219.91 214.845,1220.74C212.24,1221.96 209.058,1225.77 207.624,1228.72C206.823,1231.3 206.244,1234.36 206.615,1236.96C206.95,1239.31 208.703,1241.96 210.751,1244.21C212.676,1246.32 214.772,1248.11 216.793,1248.87C219.617,1249.92 227.592,1249.41 228.213,1250.25C227.081,1254.5 226.398,1260.6 225.848,1265.73C226.317,1269.73 226.787,1273.72 227.256,1277.72C227.21,1278.75 226.632,1279.61 225.673,1280.54C224.501,1281.69 223.112,1282.79 221.892,1283.09C218.316,1283.21 214.952,1281.25 211.059,1279.72C210.36,1279.56 209.561,1279.58 208.829,1279.94C208.173,1280.27 207.378,1281.06 207.064,1281.73C206.719,1282.48 206.733,1283.31 207.039,1284.02C207.334,1284.7 208.093,1285.48 208.69,1286C212.015,1288.96 216.881,1288.44 218.667,1290.89C216.693,1292.46 214.718,1294.03 212.743,1295.6C210.606,1297.87 209.064,1300.29 207.687,1302.67C204.212,1308.72 204.191,1314.9 202.358,1320.6C201.987,1321.13 201.448,1321.6 200.925,1321.58C200.367,1321.56 199.744,1321.06 199.159,1320.5C193.481,1313.19 187.803,1305.89 182.124,1298.59C180.697,1296.88 178.971,1295.41 177.244,1294.15C175.342,1292.75 173.851,1292.31 171.917,1292.43C170.38,1292.52 169.33,1293.08 168.508,1294.65C167.276,1297 166.674,1300.57 166.603,1302.97C166.487,1306.9 167.999,1311.35 168.733,1315C169.867,1320.65 172.168,1326.38 174.29,1332.08C174.749,1333.32 175.46,1335.12 176.931,1335.82C177.616,1336.15 178.402,1336.14 178.986,1335.79C179.932,1335.22 180.248,1334 180.144,1332.94C177.237,1324.39 173.679,1316.11 172.615,1307.84C172.176,1305.2 172.105,1302.5 172.378,1300C172.503,1298.86 172.907,1297.13 173.934,1297.2C177.121,1301.15 180.307,1305.11 183.494,1309.07C186.603,1313.31 192.1,1320.42 194.51,1325.73C194.825,1326.42 194.815,1326.72 194.342,1327.14C193.261,1327.46 191.683,1327.85 191.034,1328.97C190.425,1330.02 190.902,1331.98 191.909,1332.76C203.977,1333.87 217.495,1330.07 229.477,1331.7C230.878,1332.68 230.201,1335.64 232.845,1336.84C233.58,1337.16 234.421,1337.16 235.16,1336.82C235.862,1336.5 236.593,1335.73 236.943,1335.11C237.95,1332.29 237.302,1329.66 237.432,1326.92C237.354,1324.37 236.807,1321.29 236.179,1318.8C234.175,1310.86 231.526,1303.25 228.489,1295.67C227.107,1294.12 225.724,1292.57 224.341,1291.03C226.611,1289.39 228.88,1287.75 231.149,1286.12C232.567,1284.59 234.025,1282.67 234.341,1281C232.555,1269.45 234.542,1258.88 233.569,1247.97C234.328,1245.01 237.793,1242.05 237.461,1238.95C237.513,1237.59 237.524,1236.16 237.255,1234.81C236.917,1233.11 236.01,1231.36 235.122,1229.69C233.392,1226.74 231.089,1223.04 228.191,1221.7C226.601,1221 224.706,1220.64 223.063,1220.49M226.405,1305.03C227.77,1310.81 229.927,1317.08 230.072,1322.54C229.595,1323.61 228.086,1324.21 226.859,1324.37C220.824,1324.14 214.035,1324.78 208.447,1325.13C208.303,1325.03 209.429,1317.72 209.834,1315.98C210.516,1313.06 211.498,1309.88 212.912,1307.08C214.211,1304.5 215.984,1301.09 217.479,1299.14C218.182,1298.22 219.292,1297.14 220.116,1296.74C220.686,1296.47 221.25,1296.46 221.78,1296.74C224.283,1298.74 225.074,1302.31 226.405,1305.03M222.834,1225.75C225.028,1226.88 227.673,1230.19 228.795,1232.09C229.759,1233.73 231.289,1236.19 231.075,1237.8C230.882,1239.25 229.192,1240.68 227.735,1241.6C225.701,1242.88 223.204,1242.92 221.108,1242.5C219.046,1242.09 216.261,1240.54 214.758,1238.57C213.333,1236.5 214.41,1233.74 214.55,1231.06C214.884,1229.45 217.051,1226.54 218.344,1225.74C219.427,1225.08 221.515,1225.08 222.834,1225.75M234.114,1180.93C233.359,1180.61 232.594,1180.62 232.018,1180.94C231.046,1181.49 228.891,1185.84 227.998,1187.74C227.36,1189.1 227.594,1190.65 228.027,1191.97C229.307,1195.31 232.091,1198.7 232.008,1201.81C231.805,1203.02 230.963,1204.27 229.695,1205.33C228.238,1206.56 226.423,1207.7 224.895,1208.13C221.994,1208.59 219.052,1207.21 216.127,1206.46C213.021,1205.37 207.81,1203.12 205.421,1201.22C201.408,1198.32 200.943,1193.04 197.061,1189.98C196.33,1189.72 195.541,1189.81 194.913,1190.15C194.208,1190.54 193.912,1191.06 193.725,1191.74C193.291,1193.34 193.773,1195.4 194.259,1197.02C194.798,1198.81 195.507,1200.41 196.761,1201.79C198.822,1204.05 201.569,1207.32 204.785,1209C208.751,1211.07 212.976,1213.19 216.901,1214.19C220.637,1215.29 224.348,1215.77 228.113,1215.06C230.129,1214.43 232.474,1212.92 234.276,1211.12C236.081,1209.32 237.545,1207.03 238.156,1205.03C238.772,1203.02 238.8,1199.74 238.161,1197.75C236.905,1195.8 235.648,1193.84 234.392,1191.88C235.37,1190.24 236.349,1188.6 237.327,1186.96C237.54,1185.94 237.473,1184.75 236.955,1183.71C236.422,1182.64 235.282,1181.43 234.114,1180.93M216.691,1181.62C216.321,1185.93 215.887,1192.26 216.769,1195.95C217.212,1197.81 218.047,1201.63 219.107,1202.98C219.71,1203.75 220.864,1204.26 222.026,1204.11C223.618,1204.02 224.502,1202.37 224.444,1201.01C224.711,1197.26 224.12,1192.39 223.318,1188.72C222.859,1186.61 221.272,1183.33 220.461,1181.62C220.023,1180.7 219.137,1179.84 218.097,1179.8C217.009,1179.75 216.782,1180.56 216.691,1181.62M253.078,1163.59C251.955,1165.04 251.555,1166.44 251.549,1167.88C252.214,1170.23 252.878,1172.58 253.543,1174.93C253.216,1177.53 252.889,1180.13 252.562,1182.72C251.806,1196.36 252.476,1210.3 252.56,1223.95C252.598,1230.22 253.219,1236.84 253.565,1243.06C256.5,1275.22 260.73,1306.82 263.762,1339.14C263.967,1340.37 265.458,1341.28 267.025,1341.11C268.226,1340.96 268.995,1340.14 269.294,1339.08C270.04,1336.41 269.613,1332.57 269.379,1329.89C267.705,1310.71 264.122,1291.82 262.488,1272.82C261.05,1256.09 259.368,1239.34 258.437,1222.73C257.767,1210.76 257.77,1198.02 258.437,1186.05C258.823,1179.14 260.607,1171.71 260.369,1164.65C260.333,1163.58 260.098,1162.74 259.144,1162.15C258.302,1161.64 256.967,1161.41 255.957,1161.59C254.852,1161.79 253.92,1162.5 253.078,1163.59M1062.19,1156.21C1061.31,1155.58 1060.07,1155.51 1059.04,1155.67C1053.97,1156.42 1047.26,1156.23 1042.78,1157.59C1041.86,1157.86 1041.02,1158.62 1040.97,1159.85C1040.93,1161.1 1041.76,1161.88 1042.81,1162.18C1045.72,1163.02 1050.08,1162.53 1053.02,1162.27C1055.37,1162.06 1059.08,1161.66 1061.25,1160.5C1062.18,1160 1063.04,1159.05 1063.09,1157.93C1063.12,1157.14 1062.82,1156.65 1062.19,1156.21M174.791,1093.72C173.444,1098.98 173.272,1104.74 173.561,1110.03C173.91,1116.4 174.327,1122.85 175.748,1129.01C176.485,1131.17 177.26,1134.32 178.978,1135.83C180.006,1136.46 181.984,1136.46 183.011,1135.81C184.113,1135.11 185.583,1132.31 185.831,1130.96C186.274,1129.03 181.759,1129.45 181.763,1126.63C179.993,1119.39 180.474,1111.17 179.508,1103.84C179.825,1100.19 180.559,1096.74 182.385,1093.09C183.556,1090.54 185.574,1087.54 188.105,1086.61C188.695,1086.44 189.282,1086.46 189.868,1086.75C191.008,1087.31 192.529,1088.94 193.221,1090.11C198.411,1099.85 200.76,1110.26 205.078,1119.8C205.16,1120.73 204.624,1121.2 203.695,1121.39C201.413,1121.6 199.13,1121.81 196.848,1122.03C196.222,1122.51 195.938,1123.12 195.968,1123.92C195.996,1124.71 196.355,1125.36 196.898,1125.89C197.671,1126.64 198.779,1126.93 199.793,1127.1C202.988,1127.63 207.938,1128.21 211.148,1127.85C214.269,1127.49 217.017,1127.32 220.126,1126.3C222.001,1125.61 224.598,1125.13 225.935,1123.01C226.485,1122.02 226.514,1120.81 225.921,1119.7C225.298,1118.53 224.186,1117.79 223.104,1117.79C220.076,1118.92 217.047,1120.05 214.018,1121.18C212.78,1121.41 211.411,1121.21 210.747,1120.31C209.762,1114.75 207.617,1107.99 205.09,1101.67C200.355,1095.34 199.858,1088.97 194.181,1082.6C193.138,1081.72 192.215,1081.52 191.111,1081.46C189.411,1081.36 187.582,1081.39 185.893,1081.91C183.218,1082.76 180.131,1084.73 177.868,1087.62C176.441,1089.49 175.288,1091.78 174.791,1093.72M203.818,1071.68C203.113,1073.33 202.739,1075.19 202.592,1076.86C202.451,1078.45 202.215,1080.48 202.99,1082.04C204.039,1083.38 205.088,1084.73 206.137,1086.08C206.865,1088.42 207.327,1090.58 209.093,1093.14C209.999,1094.45 211.383,1096.08 212.777,1097.17C213.901,1098.05 214.794,1098.26 215.91,1098.33C217.545,1098.42 219.544,1098.57 221.156,1098.02C222.475,1097.58 224.121,1096.4 225.25,1095.12C226.156,1094.09 226.517,1093.1 226.81,1092C227.474,1089.51 227.499,1087.24 227.425,1084.85C227.372,1083.14 227.021,1081.52 226.413,1079.79C225.595,1077.47 224.772,1074.87 223.102,1072.62C221.886,1070.99 219.93,1068.93 218.238,1067.61C215.49,1065.96 212.652,1065.43 209.856,1065.75C207.418,1066.63 204.844,1069.3 203.818,1071.68M215.812,1070.73C216.707,1071.21 217.55,1072.17 218.184,1073.13C219.885,1075.72 220.486,1079.16 221.177,1081.96C221.621,1083.76 221.868,1085.98 221.27,1087.72C220.839,1088.97 219.189,1091.42 217.895,1091.76C217.013,1091.99 216.191,1091.32 215.397,1090.45C213.092,1087.93 208.713,1083.01 208.104,1081.5C207.57,1080.17 209.096,1076.73 209.896,1075.06C210.948,1073.33 211.542,1070.71 213.182,1070.41C213.949,1070.21 214.979,1070.29 215.812,1070.73M1063.15,1054.21C1062.56,1053.81 1061.79,1053.61 1061.03,1053.66C1056.18,1056.04 1052.41,1056.65 1047.93,1057.39C1044.22,1057.12 1040.5,1056.84 1036.79,1056.56C1035.86,1056.85 1035.03,1057.69 1034.95,1058.82C1034.89,1059.62 1035.16,1060.08 1035.74,1060.56C1036.52,1061.21 1037.77,1061.55 1038.76,1061.84C1043.07,1063.12 1046.92,1063.63 1051.04,1063.28C1053.65,1063.06 1057.75,1062.94 1060.23,1061.54C1062.37,1060.39 1063.57,1057.96 1063.98,1055.87C1064.01,1055.11 1063.79,1054.66 1063.15,1054.21M216.835,1026.61C215.512,1027.7 214.497,1029.33 213.653,1030.65C210.572,1035.38 211.137,1040.05 208.786,1044.67C207.689,1046.84 205.514,1050.88 203.844,1052.23C203.306,1052.66 202.99,1052.67 202.543,1052.25C200.187,1049.02 201.07,1043.43 199.86,1039.99C199.24,1039.46 197.968,1039.4 196.834,1039.97C196.107,1040.34 195.437,1041 195.057,1041.68C194.059,1043.46 194.458,1046.12 194.608,1047.9C194.772,1049.83 195.164,1052.2 195.858,1054.08C196.527,1055.88 198.702,1058.85 200.822,1059.86C201.898,1060.38 203.061,1060.38 204.123,1060.02C205.594,1059.52 206.724,1058.34 207.524,1057.11C209.234,1054.46 211.1,1051 212.336,1048.06C213.54,1044.08 214.745,1040.09 215.95,1036.11C216.462,1034.97 217.421,1033.27 218.224,1032.95C218.917,1032.68 219.341,1033.32 219.604,1034.23C221.098,1041.14 222.264,1047.88 224.85,1055.19C225.176,1055.86 225.572,1056.52 226.128,1056.77C227.029,1057.18 228.277,1056.74 228.7,1055.85C229.37,1054.46 229.483,1049.41 229.264,1047.85C228.714,1043.95 227.52,1039.47 226.364,1035.68C225.704,1033.52 224.315,1030.45 223.085,1028.62C222.402,1027.6 221.278,1026.4 220.134,1025.92C218.933,1025.42 217.894,1025.74 216.835,1026.61M221.03,1005.66C219.287,1006.58 217.545,1007.49 215.802,1008.41C212.45,1008.93 209.098,1009.44 205.746,1009.96C205.134,1010.3 204.372,1011.03 204.059,1011.73C203.728,1012.47 203.729,1013.31 204.067,1014.05C204.856,1015.64 206.583,1016.38 207.893,1016.33C211.171,1016.53 214.932,1016.65 218.185,1015.38C219.592,1014.84 220.868,1013.64 221.93,1012.13C223.001,1010.42 224.44,1008.43 223.819,1006.93C223.402,1006.1 222.141,1005.59 221.03,1005.66M1144.92,975.985C1143.88,976.642 1143.61,977.715 1143.57,978.813C1144.23,982.858 1144.9,986.902 1145.56,990.947C1145.96,1003.96 1146.28,1017.07 1145.56,1030.07C1146.51,1047.13 1147.61,1064.01 1148.56,1081.05C1148.56,1095.25 1148.64,1109.54 1148.5,1123.68C1148.34,1124.62 1147.95,1124.94 1147.04,1124.23C1144.14,1120.06 1138.99,1116.31 1135.88,1112.88C1135.31,1112.55 1134.56,1112.43 1133.96,1112.6C1133.26,1112.8 1132.91,1113.2 1132.86,1113.91C1136.79,1121.07 1145.65,1125.82 1149.25,1133.13C1149.94,1133.99 1150.8,1134.3 1151.96,1134.31C1154.16,1134.54 1156.34,1132.38 1158.06,1130.89C1160.79,1128.35 1165.12,1123.71 1167.02,1120.98C1168.97,1115.24 1171.89,1108.98 1172.25,1102.75C1172.04,1101.65 1171.22,1100.85 1170.06,1100.58C1168.63,1100.26 1166.85,1100.75 1166.11,1101.78C1165.42,1107.29 1162.73,1113.12 1160.76,1118.69C1159.52,1121.04 1157.14,1124.61 1155.18,1125.62C1154.74,1125.67 1154.59,1125.25 1154.5,1124.67C1154.36,1109.08 1154.44,1093.35 1154.44,1077.71C1153.49,1060.63 1152.38,1043.76 1151.44,1026.71C1151.44,1013.37 1151.44,1000.04 1151.44,986.708C1151.3,984.187 1151.02,979.934 1150.33,977.65C1149.95,976.384 1148.65,975.634 1147.07,975.538C1146.34,975.494 1145.51,975.608 1144.92,975.985M1051.08,961.845C1048.79,961.481 1046.86,965.266 1044.81,965.336C1040.8,965.413 1036.78,965.49 1032.77,965.567C1032.13,965.766 1031.62,966.084 1031.25,966.786C1030.92,967.422 1030.84,968.196 1031.12,968.974C1031.7,970.585 1033.58,971.953 1034.85,972.147C1038.18,972.658 1044.8,971.778 1048.12,971.111C1049.44,970.844 1051.13,970.175 1051.92,968.99C1052.65,967.906 1053.3,965.119 1053.15,963.788C1053.03,962.79 1052.27,961.958 1051.08,961.845M187.814,970.88C187.41,976.126 188.721,982.814 189.778,988.012C191.59,993.717 193.403,999.422 195.216,1005.13C195.991,1006.44 197.398,1008.15 198.837,1008.86C199.862,1009.37 201.134,1009.46 202.116,1009.2C203.469,1008.84 204.367,1007.52 204.253,1005.93C202.975,1003.53 201.696,1001.13 200.418,998.728C199.157,995.26 198.043,991.323 197.969,988.21C200.629,985.974 206.177,988.697 210.156,986.319C212.601,985.178 216.345,983.747 218.183,981.873C219.156,980.881 219.676,979.145 219.358,977.809C219.179,977.061 218.861,976.611 218.195,976.187C217.321,975.631 216.035,975.448 215.009,975.536C211.137,976.682 207.431,979.537 203.899,981.34C202.279,981.722 197.786,981.252 196.417,980.805C193.98,978.666 194.808,973.401 192.555,969.729C192.112,966.705 191.67,963.68 191.227,960.656C191.011,960.151 190.673,959.849 190.183,960.101C188.123,962.63 188.252,967.323 187.814,970.88M197,986.362L197.527,986.889L197,987.416L196.473,986.889L197,986.362M221.107,948.837C219.281,948.666 217.852,951.363 215.805,951.464C211.784,951.663 207.99,949.962 203.916,950.645C202.629,950.861 201.126,951.251 199.762,952.115C198.71,952.78 197.81,953.7 197.831,954.905C197.845,955.695 198.192,956.298 198.868,956.774C205.929,957.49 212.181,957.098 219.145,957.209C220.399,956.891 221.498,955.652 222.451,954.099C223.131,952.989 223.559,951.891 223.316,950.808C223.082,949.77 222.163,948.936 221.107,948.837M187.753,912.93C188.811,914.137 190.501,914.889 191.791,915.467C198.454,918.07 206.686,918.901 211.891,922.251C210.364,927.332 202.049,933.324 198.464,938.811C197.829,939.864 197.514,940.871 197.803,942.028C198.083,943.152 198.831,943.947 199.912,944.164C201.019,944.387 202.095,943.999 203.181,943.191C205.745,941.283 208.236,939.144 210.265,937.112C212.934,934.439 215.207,931.107 217.196,928.104C218.055,926.196 218.914,924.288 219.773,922.381C220.664,921.149 223.401,920.801 223.777,918.888C223.987,917.743 223.159,916.932 222.214,916.641C213.078,915.759 204.024,912.783 195.087,912.268C193.001,911.485 190.916,910.703 188.83,909.92C187.791,909.682 186.941,909.849 186.892,910.923C186.858,911.644 187.146,912.239 187.753,912.93M214.172,882.647C210.927,882.039 204.134,883.046 200.909,883.662C198.537,884.115 194.877,885.138 192.739,886.286C191.504,886.95 190.516,888.411 190.718,889.925C190.831,891.38 192.399,892.135 193.837,892.158C198.942,892.426 206.388,891.296 211.177,890.202C212.203,889.968 213.239,889.285 214.316,888.198C215.365,887.138 216.214,886.042 216.178,884.867C216.141,883.657 215.206,882.841 214.172,882.647M1048.11,870.151C1047.48,869.794 1046.74,869.707 1045.99,869.897C1044.28,870.715 1042.57,871.533 1040.86,872.351C1038.17,872.083 1035.49,871.816 1032.8,871.548C1031.88,871.812 1031.05,872.671 1030.96,873.801C1030.74,875.558 1033.2,876.998 1034.84,877.919C1037.16,878.929 1040.68,878.5 1043.05,878.286C1044.92,878.041 1047.66,877.548 1048.92,875.93C1049.54,874.963 1049.58,872.969 1049.27,871.77C1049.08,871.054 1048.8,870.552 1048.11,870.151M235.635,825.695C234.603,828.871 233.553,833.791 233.811,837.016C233.699,838.776 236.06,840.13 237.143,841.251C238.045,842.714 238.343,845.987 238.51,847.939C241.241,879.74 242.811,911.156 244.568,943.07C245.235,955.198 247.468,966.771 248.511,978.947C249.635,992.075 249.46,1005.09 250.616,1017.94C253.548,1050.58 256.81,1083.42 259.633,1116.09C259.82,1118.25 259.947,1122.15 261.07,1124.14C261.884,1125.59 263.652,1126.49 265.086,1126.2C265.83,1126.06 266.338,1125.68 266.73,1125.07C267.299,1124.18 267.349,1122.99 267.235,1121.96C264.078,1105.65 264.01,1089.68 261.436,1073.72C261.636,1069.44 261.76,1065.1 261.38,1060.83C260.002,1045.34 257.821,1030.32 256.49,1014.84C255.374,1001.85 255.157,988.604 254.437,975.708C250.442,946.543 249.961,917.236 246.49,887.771C244.741,867.455 244.696,846.931 243.437,826.708C243.374,825.696 243.159,824.635 242.185,823.691C241.249,822.784 240.052,822.392 238.94,822.575C237.282,822.848 236.106,824.247 235.635,825.695M1162.21,809.464C1161.06,808.729 1160.16,808.475 1159.07,808.455C1154.79,808.377 1147.65,809.198 1143.78,810.694C1143.17,810.93 1142.85,811.191 1142.85,811.947C1142.85,812.679 1143.16,813.368 1143.82,814.065C1144.75,815.059 1145.87,815.297 1146.9,815.272C1150.99,814.687 1155.07,814.102 1159.16,813.518C1160.5,813.688 1161.83,813.858 1163.16,814.029C1164.13,813.89 1164.97,813.071 1164.72,812.013C1164.5,811.062 1163.28,810.141 1162.21,809.464M462.818,808.702C462.256,810.219 461.583,814.183 461.838,815.94C463.913,821.714 465.844,827.423 468.526,833.091C474.588,858.539 483.978,884.452 489.852,909.952C483.638,920.517 477.425,931.083 471.211,941.649C461.832,954.65 452.452,967.651 443.072,980.651C438.557,987.424 433.597,995.827 429.946,1001.93C429.239,1003.11 427.392,1006.12 427.674,1007.9C428.878,1009.63 430.082,1011.36 431.286,1013.09C439.996,1035.62 449.237,1060.17 456.843,1083.02C458.536,1086.37 460.228,1089.71 461.921,1093.05C468.951,1112.19 474.505,1132.07 481.157,1152.02C484.072,1163.61 486.986,1175.19 489.901,1186.78C487.018,1191.49 484.237,1196.96 480.304,1200.66C476.117,1210.04 471.326,1219.48 466.659,1228.69C459.692,1239.31 452.614,1250.05 445.269,1259.62C443.231,1261.72 441.193,1263.82 439.155,1265.93C439.445,1266.93 442.479,1269.79 444.979,1270.14C445.756,1270.08 446.119,1269.8 446.652,1269.19C455.279,1257.03 462.75,1244.44 472.511,1232.05C476.999,1222.91 481.832,1213.16 486.498,1204.19C487.704,1202.76 490.196,1200.32 491.234,1200C492.527,1200.23 494.455,1200.78 496.164,1199.69C497.128,1199.07 497.325,1198.19 497.393,1197.12C497.669,1192.8 497.058,1187.03 496.029,1182.81C493.224,1171.31 490.689,1159.89 486.978,1148.76C482.834,1136.75 478.69,1124.75 474.547,1112.74C473.463,1107.05 472.38,1101.36 471.296,1095.67C470.816,1093.6 468.017,1092.48 466.881,1090.63C465.299,1088.05 463.059,1083.83 461.857,1080.71C454.86,1057.2 442.83,1033.22 435.835,1009.88C435.723,1008.11 436.446,1005.82 437.268,1004.05C440.222,997.698 444.418,991.251 448.164,985.122C457.731,971.812 466.722,958.485 476.924,945.131C484.555,932.196 493.202,919.233 499.404,905.869C499.442,905.141 499.344,904.447 498.98,903.902C497.898,902.342 494.683,902.6 494.488,900.611C487.946,877.306 480.365,853.365 474.222,829.74C472.787,825.436 469.551,821.237 467.786,816.722C466.823,814.26 466.475,811.946 466.146,809.546C465.825,808.552 465.086,807.727 464.061,807.746C463.35,807.759 463.05,808.075 462.818,808.702M177.895,807.924C177.848,808.611 178.12,809.188 178.694,809.88C182.117,812.627 185.539,815.374 188.961,818.122C189.613,819.792 188.605,824.018 188.19,825.866C187.679,830.078 184.41,834.365 184.67,838.988C184.934,841.511 189.285,840.83 189.489,843.187C189.387,854.389 190.58,867.01 190.869,879.074C191.214,880.074 191.977,881.307 192.903,882.141C193.852,882.996 194.965,883.406 196.064,883.187C197.508,882.967 198.322,881.421 198.293,879.935C197.707,878.224 197.122,876.513 196.537,874.802C196.245,872.813 195.882,867.889 196.863,866.394C202.359,863.923 210.034,864.705 216.287,862.167C217.462,861.73 218.448,860.461 218.261,858.881C218.169,858.107 217.872,857.687 217.234,857.234C216.206,856.504 214.296,855.92 213.073,855.728C208.407,856.526 203.741,857.325 199.075,858.123C198.082,858.238 197.251,858.012 196.678,857.314C194.627,852.319 193.323,845.346 190.846,839.863C190.616,836.725 193.606,825.574 194.815,823.134C195.485,821.782 196.676,821.453 197.937,821.709C200.921,823.012 203.905,824.315 206.889,825.618C209.29,826.419 212.519,827.225 215.02,827.232C217.171,827.238 220.163,826.512 222.323,825.293C223.344,824.717 224.175,823.914 224.155,822.923C224.141,822.232 223.815,821.917 223.199,821.693C219.493,821.226 215.787,820.759 212.081,820.292C207.457,819.379 202.626,817.852 198.284,816.193C196.434,815.486 195.745,814.161 194.889,812.981C193.286,813.011 191.683,813.041 190.079,813.071C186.35,811.059 182.62,809.047 178.891,807.035C178.269,807.017 177.942,807.245 177.895,807.924M1127.96,816.95C1130.14,827.673 1132.81,838.334 1135.61,849.036C1136.76,852.299 1138.32,856.016 1140.87,859.177C1141.68,860.172 1142.74,861.369 1143.79,862.172C1144.88,863.006 1145.98,863.421 1147.07,863.196C1147.83,863.041 1148.32,862.673 1148.73,862.028C1149.32,861.101 1149.43,859.867 1148.98,858.814C1147.54,856.775 1146.1,854.737 1144.66,852.698C1143.18,849.572 1140.95,845.921 1140.98,843.181C1145.2,841.214 1152.64,842.981 1158.19,842.2C1159.19,841.959 1160.4,841.24 1160.94,840.046C1161.27,839.288 1161.24,838.424 1160.91,837.814C1160.32,836.734 1159.19,836.524 1158.19,836.458C1152.03,836.459 1145.31,837.058 1139.52,836.073C1136.96,828.823 1134.96,819.738 1131.5,811.656C1130.78,809.912 1129.51,806.937 1128.57,805.658C1128.19,805.143 1127.72,804.866 1127.25,805.124C1125.59,808.025 1127.62,813.179 1127.96,816.95M1037.83,783.588C1040.34,784.446 1042.61,784.34 1045.02,784.325C1047.1,784.312 1049.02,784.053 1051.23,783.293C1052.56,782.839 1054.45,782.211 1054.75,780.838C1054.98,779.759 1054.14,778.917 1053.21,778.626C1049.83,777.575 1043.01,777.425 1039,777.452C1037.92,777.459 1036.74,777.756 1035.81,778.715C1035.15,779.399 1034.82,780.07 1034.82,780.872C1034.77,782.375 1036.44,783.133 1037.83,783.588M1140.98,770.186C1139.59,770.039 1138.2,769.892 1136.81,769.745C1136.09,769.887 1135.46,770.239 1135.08,770.855C1134.36,772.027 1134.88,773.871 1135.85,774.764C1138.81,776.195 1141.78,777.625 1144.74,779.056C1145.99,779.787 1147.58,780.848 1147.89,782.03C1147.93,784.163 1146.53,786.407 1145.19,788.657C1142.79,791.085 1140.39,793.514 1138,795.943C1137.4,797.138 1137.84,798.988 1138.89,799.769C1139.71,800.375 1146.4,802.343 1148.01,802.127C1152.16,800.252 1156.09,800.119 1160.21,798.037C1160.82,797.358 1161.11,796.683 1161.05,795.828C1160.98,794.623 1160.12,793.856 1159.13,793.62C1155.57,792.849 1150.73,796.536 1149.01,795.516C1150.38,792.229 1154.01,787.854 1154.28,783.964C1154.56,782.354 1154.71,780.376 1154.38,778.767C1153.71,777.568 1153.04,776.368 1152.37,775.169C1154.69,773.249 1160.81,773.907 1165.25,772.813C1166.34,772.198 1167.14,771.061 1167.26,769.887C1167.38,768.748 1166.88,767.546 1166.1,767.007C1157.84,766.742 1149.14,768.957 1140.98,770.186M1131.87,739.809C1132.07,744.77 1133.81,750.352 1135.59,755.077C1136.18,756.663 1137.09,758.722 1138.81,760.154C1139.82,760.999 1140.97,761.402 1142.06,761.186C1142.82,761.035 1143.32,760.674 1143.73,760.037C1144.33,759.114 1144.42,757.901 1144.05,756.846C1142.27,751.682 1140.13,747.134 1137.57,742.67C1136.12,740.65 1134.44,736.804 1132.94,737.157C1132.23,737.47 1131.83,738.706 1131.87,739.809M1155.74,734.649C1155.11,736.924 1155.02,740.157 1154.68,742.798C1154.11,747.063 1157.84,751.062 1158.38,754.899C1158.53,756.153 1158.08,757.406 1156.81,758.07C1155.97,758.51 1155.03,758.505 1154.18,758.052C1153.62,757.752 1153.06,757.206 1152.66,756.613C1150.54,750.983 1148.41,745.352 1146.29,739.722C1145.99,739.099 1145.69,738.788 1145.02,738.788C1144.37,738.787 1144.03,739.099 1143.8,739.716C1143.08,741.637 1143.38,745.761 1143.77,747.931C1144.82,750.926 1145.87,753.921 1146.91,756.916C1146.96,758.213 1147.01,759.511 1147.06,760.808C1147.71,762.045 1151.21,764.547 1152.91,765.023C1154.48,765.464 1161.25,763.373 1162.11,762.83C1163.33,762.049 1164.16,760.325 1164.38,759.003C1164.69,757.06 1164.58,754.803 1164.4,752.863C1163.47,749.177 1162.54,745.491 1161.61,741.805C1161.5,739.431 1161.39,737.058 1161.29,734.685C1160.99,733.627 1160.22,732.799 1159.02,732.647C1157.45,732.46 1155.95,733.396 1155.74,734.649M1056.12,699.165C1055.5,698.779 1054.76,698.686 1054,698.805C1051.02,699.928 1048.82,701.041 1046.12,700.889C1042.69,700.499 1039.27,700.109 1035.85,699.719C1034.99,699.906 1034.56,700.681 1034.73,701.886C1034.91,703.088 1035.68,704.214 1036.76,704.818C1038.81,705.964 1043.8,706.231 1046.09,706.296C1048.11,706.353 1052.48,705.75 1054.22,704.843C1055.62,704.114 1057.22,702.329 1057.18,700.889C1057.16,700.122 1056.81,699.583 1056.12,699.165M1064.14,618.452C1057.29,617.96 1049.59,619.047 1042.75,619.507C1041.44,619.426 1040.04,620.3 1039.94,621.821C1039.9,622.624 1040.18,623.082 1040.78,623.579C1041.59,624.241 1042.9,624.641 1043.88,624.902C1047.35,625.828 1051.57,625.558 1055.02,625.26C1057.93,625.008 1061.29,624.401 1064.22,623.056C1065.57,622.561 1067.13,621.358 1066.69,619.903C1066.35,618.765 1065.17,618.526 1064.14,618.452M211.669,581.738C209.937,591.215 208.318,600.472 208.204,609.617C207.944,610.149 207.451,610.625 206.979,610.625C206.485,610.626 206.028,610.156 205.767,609.607C204.971,606.396 204.957,603.016 203.013,599.702C201.898,597.806 200.532,595.108 199,593.688C198.12,592.871 196.924,592.462 196.312,592.967C196.207,599.346 198.513,607.66 199.428,614.7C199.375,615.3 199.19,615.692 198.712,615.714C197.177,615.489 195.042,613.255 192.866,613.756C191.696,613.983 190.982,614.737 190.893,615.824C190.818,617.671 191.949,619.498 193.708,620.55C196.433,622.413 199.454,624.363 202.842,625.892C204.225,626.005 205.608,626.117 206.992,626.229C207.517,627.643 207.726,633.544 207.473,635.789C207.257,637.707 206.2,639.701 204.97,641.521C204.313,642.493 203.724,643.141 202.82,643.28C201.566,643.473 199.511,642.883 198.184,642.085C193.74,639.411 191.196,635.416 187.199,632.871C185.871,632.025 181.185,628.875 179.046,628.561C178.315,628.453 177.553,628.571 176.839,628.929C175.751,629.473 174.776,630.583 174.065,631.64C172.337,634.207 172.146,637.206 171.747,639.841C171.258,643.072 171.264,646.765 172.254,650.005C172.774,651.709 173.431,653.445 174.426,655.143C175.228,656.511 176.346,657.866 177.747,658.897C179.199,659.966 180.476,660.285 181.896,660.338C186.517,660.509 190.656,658.766 194.984,658.39C196.255,658.279 197.628,658.292 198.212,659.222C198.143,663.691 194.423,669.511 194.553,674.794C194.515,677.892 194.454,680.998 195.965,684.091C197.531,686.777 201.381,690.053 203.784,691.451C205.16,692.251 206.553,692.857 207.875,693.115C209.848,693.211 211.821,693.308 213.794,693.404C214.794,693.607 215.28,694.093 215.482,695.091C216.331,699.293 216.824,706.497 216.486,710.865C216.268,713.683 215.782,716.949 214.895,719.614C214.42,721.041 213.889,722.082 212.699,722.428C211.215,722.858 208.744,723.337 207.093,723.201C205.793,723.093 204.595,722.581 203.249,721.42C199.417,717.987 197.845,714.225 195.253,710.694C194.443,708.132 193.633,705.569 192.823,703.006C191.895,702.297 189.945,702.55 189.778,703.722C189.171,705.486 189.394,708.961 189.747,710.951C190.222,713.624 191.594,716.609 192.839,719.114C194.205,724.166 201.616,727.398 203.055,731.037C200.408,737.592 197.762,744.147 195.116,750.703C193.723,753.867 193.014,757.547 190.039,758.543C189.031,758.557 188.128,756.777 187.58,755.622C186.039,752.371 184.397,747.446 183.558,743.789C183.314,742.723 183.317,741.122 183.556,740.13C183.55,738.61 186.39,738.393 185.889,736.96C185.651,736.124 184.003,734.419 182.958,733.906C181.714,733.294 179.901,733.701 179.112,734.787C178.066,738.145 178.782,742.189 178.638,745.832C178.888,748.854 179.711,752.044 180.458,754.999C181.13,757.658 182.14,760.444 183.707,763.143C184.589,764.663 185.497,765.863 186.879,766.192C188.32,766.535 190.701,766.584 192.17,765.861C194.026,764.947 197.005,761.863 197.976,760.082C198.908,758.374 200.232,756.056 201.067,754.035C201.291,752.365 201.514,750.693 201.738,749.023C203.056,744.64 205.076,740.306 206.745,736.18C207.515,734.457 208.583,731.603 210.015,731.509C211.172,731.488 212.356,733.51 212.485,735.045C212.144,742.688 213.594,750.376 213.845,758.034C214.301,759.403 215.564,763.343 216.172,763.717C217.151,764.318 219.097,763.358 219.251,762.097C219.579,757.069 219.414,751.859 219.431,746.759C219.13,740.928 218.1,735.46 217.906,729.884C218.944,727.263 219.982,724.642 221.019,722.021C222.062,717.8 222.599,713.107 222.451,708.801C222.244,702.797 219.761,696.595 218.848,690.973C219.382,688.984 219.916,686.995 220.45,685.006C220.651,681.446 219.846,677.289 219.266,673.766C218.983,672.053 218.321,670.381 217.369,668.666C216.227,666.611 215.151,664.489 213.267,662.942C209.596,659.458 204.377,660.598 202.275,658.65C204.009,656.36 209.535,657.781 213.276,655.842C214.796,655.29 215.948,654.479 216.289,653.006C216.603,651.651 216.388,649.947 215.223,648.71C213.536,647.932 211.848,647.155 210.161,646.378C211.2,643.912 212.239,641.447 213.279,638.981C213.718,636.428 213.662,633.445 213.419,630.871C213.274,629.338 212.916,627.16 212.026,625.721C210.809,624.661 209.593,623.6 208.377,622.539C209.803,619.523 214.821,615.547 215.373,612.029C215.805,600.6 215.185,587.687 214.91,577.145C214.454,576.804 212.08,579.918 211.669,581.738M211.434,664.412C212.846,665.972 213.944,669.797 214.367,671.96C214.939,674.89 214.889,678.844 214.474,681.778C214.262,683.281 212.892,686.293 211.654,686.85C209.847,687.274 207.382,685.651 205.242,684.138C203.288,682.652 201.553,680.645 201.055,678.772C200.453,676.505 201.771,667.181 202.834,665.191C203.612,663.734 205.693,662.542 207.051,662.407C208.461,662.268 210.295,663.153 211.434,664.412M180.817,634.649C184.797,638.492 188.778,642.336 192.759,646.179C195.164,648.298 197.754,648.17 199.347,649.476C199.77,649.823 199.773,650.064 199.334,650.472C195.615,652.326 190.967,653.654 186.914,655.076C185.008,655.408 183.112,655.958 181.24,654.395C179.982,653.385 178.892,651.904 178.246,650.684C177.263,648.826 176.651,646.753 176.498,644.854C176.352,641.447 177.529,637.34 178.84,634.326C179.333,633.716 179.858,633.938 180.817,634.649M178.64,568.683C178.677,576.813 178.687,584.048 178.625,591.956C179.503,598.271 181.463,605.051 184.01,611.091C184.456,612.15 185.01,613.269 185.969,613.828C186.586,614.188 187.381,614.306 188.064,614.176C188.826,614.03 189.327,613.679 189.728,613.064C190.301,612.188 190.35,610.99 190.236,609.956C187.314,595.638 184.259,581.815 181.318,567.709C181.056,567.094 180.657,566.783 180.022,566.788C179.032,566.795 178.73,567.634 178.64,568.683M247.92,534.593C247.142,536.88 246.65,539.674 246.583,541.821C246.522,586.306 244.886,631.101 245.565,675.811C245.899,678.815 246.233,681.818 246.567,684.822C246.568,713.522 246.487,742.223 246.632,770.923C246.772,772.536 247.104,775.69 248.117,776.987C248.719,777.758 249.868,778.258 251.028,778.116C252.616,778.022 253.495,776.401 253.437,775.062C253.804,697.574 251.663,620.813 252.437,544.064C252.783,541.643 253.128,539.221 253.474,536.8C253.476,535.741 253.52,534.617 252.902,533.813C252.3,533.03 251.039,532.532 249.984,532.647C248.86,532.77 248.284,533.521 247.92,534.593M1059.2,524.046C1054.66,523.579 1050.03,525.392 1045.78,525.626C1044.96,525.928 1044.51,526.688 1044.73,527.917C1044.96,529.144 1045.77,529.901 1046.84,530.194C1050.69,530.712 1054.41,529.574 1058.23,528.997C1059.6,528.51 1061.19,527.311 1060.75,525.818C1060.56,525.132 1059.87,524.387 1059.2,524.046M1069.1,443.71C1064.54,443.649 1059.15,444.294 1054.87,444.78C1053.6,444.702 1052.64,446.341 1052.8,447.895C1052.92,449.11 1053.74,449.88 1054.82,450.18C1058.36,451.17 1063.52,450.511 1067.13,450.326C1068.53,450.254 1069.9,449.766 1071.33,448.599C1072.36,447.76 1073.09,446.918 1072.79,445.964C1072.36,444.637 1070.36,443.727 1069.1,443.71M1150.83,399.577C1148.44,401.479 1146.6,404.354 1145.09,406.636C1141.95,412.78 1137.4,418.523 1135.75,424.948C1135.86,425.671 1136.19,426.201 1136.89,426.602C1137.52,426.961 1138.28,427.047 1138.92,426.793C1142.35,424.545 1146.06,417.179 1147.81,416.952C1148.23,417.13 1148.4,417.551 1148.52,418.203C1148.87,427.829 1149.22,437.455 1149.57,447.081C1150.23,459.235 1152.47,470.782 1153.51,482.938C1154.6,495.614 1154.86,508.443 1155.56,521.07C1155.56,541.403 1155.56,561.736 1155.56,582.07C1156.43,597.672 1156.22,613.492 1157.62,628.948C1157.73,630.196 1157.99,631.797 1158.56,633.071C1159,634.046 1159.75,634.892 1160.97,634.927C1161.77,634.95 1162.39,634.651 1162.87,634.004C1163.29,633.449 1163.4,632.656 1163.39,631.971C1162.79,627.115 1162.4,622.552 1162.43,617.79C1162.77,614.77 1163.1,611.749 1163.44,608.728C1162.94,598.578 1162,588.823 1161.44,578.708C1161.44,558.374 1161.44,538.041 1161.44,517.708C1160.73,504.989 1160.06,492.343 1159.43,479.702C1158.5,462.942 1155.38,445.688 1154.44,428.771C1154.32,426.657 1154.14,424.086 1154.55,421.989C1155.04,420.642 1155.53,419.294 1156.01,417.947C1155.17,415.287 1154.33,412.627 1153.5,409.968C1153.54,409.458 1153.76,409.066 1154.07,409.137C1158.04,414.714 1162.02,420.291 1165.99,425.867C1167.07,426.479 1169.02,426.517 1170.04,425.79C1170.86,425.21 1171.33,424.024 1171.25,422.919C1166.89,415.185 1160.65,407.927 1157.58,400.56C1156.8,399.31 1155.59,398.59 1154.02,398.492C1152.89,398.422 1151.91,398.718 1150.83,399.577M1074.03,368.753C1072.61,369.621 1071.18,370.489 1069.76,371.356C1067.43,371.436 1065.1,371.515 1062.77,371.594C1062.15,371.781 1061.6,372.095 1061.25,372.791C1060.93,373.428 1060.87,374.271 1061.18,374.925C1061.7,376.023 1062.85,376.259 1063.91,376.334C1066.52,376.518 1069.65,376.433 1072.17,375.368C1073.15,374.954 1074,374.234 1074.64,373.108C1075.24,372.057 1075.59,370.756 1075.31,369.835C1075.09,369.142 1074.67,368.796 1074.03,368.753M1086.01,288.737C1082.61,290.76 1078.18,292.355 1073.95,292.778C1070.24,292.427 1066.53,292.075 1062.82,291.724C1061.89,291.852 1061.04,292.613 1060.97,293.825C1060.89,295.038 1061.67,296.177 1062.76,296.805C1064.76,297.968 1072.68,299.468 1075.01,299.168C1076.87,298.928 1079.49,298.726 1081.22,297.859C1083.07,296.927 1086.08,294.386 1087.23,292.93C1087.7,292.34 1088.03,291.66 1087.98,290.893C1087.9,289.747 1087.01,288.79 1086.01,288.737M1147.64,277.659C1147.46,279.358 1147.54,281.213 1147.57,282.921C1147.61,284.737 1148.32,286.432 1149.01,287.879C1149.13,288.936 1148.37,290.586 1147.62,290.734C1143.44,288.505 1139.27,286.276 1135.09,284.048C1134.04,283.764 1132.92,283.485 1131.83,283.982C1131.13,284.303 1130.45,284.973 1130.02,285.644C1128.44,288.827 1128.43,291.842 1128.62,294.967C1128.96,296.88 1130.28,299.668 1131.99,300.863C1133.21,301.493 1135.23,301.053 1135.76,299.927C1135.01,297.244 1134.25,294.56 1133.5,291.876C1133.37,290.522 1133.21,288.125 1134.26,287.917C1138.01,289.367 1142.48,294.923 1145.88,297.531C1146.91,298.146 1147.98,298.376 1149.09,298.292C1150.21,298.206 1151.28,297.823 1151.94,297.016C1153.46,294.293 1153.58,290.85 1153.35,287.821C1153,285.866 1148.96,276.189 1148.79,276.101C1148.12,275.739 1147.75,276.643 1147.64,277.659M1135.04,263.665C1134.19,265.224 1133.48,268.326 1133.71,269.982C1133.94,271.587 1136.02,273.901 1137.79,274.851C1139.18,275.602 1141.64,276.186 1143.09,276.064C1144.81,276.07 1146.49,273.712 1147.13,272.042C1147.71,270.402 1147.54,268.454 1147.26,266.824C1146.94,264.969 1146.27,262.228 1144.88,260.644C1143.71,259.206 1141.62,259.313 1139.87,259.759C1138.23,260.291 1135.95,262 1135.04,263.665M1142.21,269.384C1141.64,270.321 1140.36,270.376 1139.32,269.753C1138.25,269.106 1137.56,268.095 1138.53,266.958C1139.62,265.388 1141.68,263.586 1142.27,264.345C1142.84,265.079 1142.74,268.533 1142.21,269.384M1150.48,238.248C1150.06,240.039 1149.64,241.831 1149.22,243.622C1148.92,244.155 1148.42,244.639 1147.87,244.737C1143.94,243.11 1140,241.483 1136.07,239.856C1134.75,239.532 1133.23,239.26 1131.88,239.573C1131.07,239.759 1130.49,240.023 1129.81,240.699C1127.75,243.025 1128.78,245.537 1128.61,247.891C1129.29,250.626 1128.82,253.437 1130.84,256.101C1131.52,256.743 1132.24,257.08 1132.96,257.063C1133.69,257.045 1133.95,256.677 1134.05,256.05C1133.54,253.013 1133.02,249.976 1132.5,246.939C1132.46,245.703 1132.91,244.293 1134.16,243.864C1135.18,243.512 1136.72,243.993 1137.63,244.674C1138.71,245.741 1139.78,246.808 1140.85,247.876C1142.35,248.764 1145,250.434 1146.91,251.047C1148.37,251.517 1149.87,251.312 1151.04,250.127C1152.09,249.05 1152.92,247.275 1153.15,245.987C1153.44,244.304 1152.85,240.045 1151.82,238.773C1151.4,238.245 1150.81,238.019 1150.48,238.248M1085.11,236.826C1076.01,239.814 1067.75,238.379 1058.84,241.466C1057.97,241.941 1057.53,242.837 1057.75,243.89C1057.9,244.631 1058.21,244.908 1058.81,245.111C1065.36,245.328 1072.35,244.204 1079.08,243.134C1080.74,242.812 1082.59,242.329 1084.29,240.961C1085.33,240.131 1086.21,238.957 1086.17,237.925C1086.13,237.195 1085.76,236.905 1085.11,236.826M983.976,235.873C982.376,236.128 981.14,236.581 980.598,237.671C978.719,244.714 976.84,251.758 974.961,258.802C974.371,262.787 973.781,266.771 973.191,270.756C972.506,273.473 970.824,277.043 969.117,279.498C951.277,290.35 930.697,304.901 911.79,316.253C889.165,328.421 866.499,337.609 843.777,350.322C840.719,352.04 837.691,353.734 834.74,355.938C830.717,359.234 826.694,362.53 822.671,365.827C807.396,374.6 790.683,382.914 774.79,391.254C761.868,398.034 749.373,404.669 735.82,410.694C716.346,419.352 695.157,427.796 675.773,437.234C669.747,442.318 660.618,447.607 653.04,452.568C651.016,452.263 648.992,451.958 646.968,451.652C644.283,452.158 641.264,453.472 638.795,454.903C616.065,469.983 593.455,485.57 570.769,501.094C552.744,511.19 533.619,522.408 516.086,532.757C515.296,537.098 512.691,542.134 511.263,546.671C505.972,557.552 500.75,568.125 494.821,578.68C489.192,588.703 483.481,599.149 477.206,608.655C474.385,612.392 471.563,616.129 468.741,619.867C470.137,624.591 471.532,629.315 472.927,634.039C478.263,644.682 482.613,655.328 487.14,666.013C490.502,679.342 496.358,692.637 499.397,706.011C504.195,717.794 509.949,729.211 514.713,740.905C515.124,741.914 515.412,742.819 515.042,743.817C514.177,746.147 511.267,749.684 509.501,751.478C506.807,754.216 501.231,757.419 497.918,760.732C490.826,767.825 481.723,775.61 476.048,782.627C470.672,789.275 466.994,795.129 463.462,801.828C463.051,802.606 462.811,803.156 462.909,803.995C462.994,804.723 463.364,805.363 463.947,805.77C465.391,806.567 467.671,806.527 469.019,805.184C472.519,800.176 476.019,795.169 479.519,790.161C482.536,786.539 486.673,782.194 489.491,779.376C501.276,768.435 516.353,754.666 524.278,747.026C524.558,745.675 524.127,744.085 523.606,742.78C516.81,729.357 511.541,716.031 505.862,702.767C502.951,689.474 497.004,676.1 493.6,662.764C490.24,654.514 486.452,645.885 483.065,637.706C481.176,632.967 477.706,628.278 474.995,623.87C483.517,611.746 492.256,596.075 500.574,582.097C506.531,571.491 511.533,561.087 517.091,550.102C518.029,545.93 521.714,541.111 522.419,537.309C538.982,528.903 556.299,517.358 573.23,508.45C594.512,494.017 615.794,479.583 637.077,465.15C638.739,464.972 640.4,464.794 642.062,464.616C650.997,460.948 659.444,454.925 668.13,450.032C669.799,449.674 671.467,449.316 673.136,448.959C682.264,443.354 691.157,439.338 700.185,434.537C713.159,428.37 727.541,423.328 740.187,417.005C760.543,406.828 780.915,396.654 801.207,386.007C807.039,382.947 814.06,379.678 819.196,375.795C822.021,373.218 825.438,368.105 829.253,366.055C858.114,351.526 887.239,336.461 916.211,321.462C931.763,311.744 947.819,300.945 963.077,292.419C965.879,290.442 971.535,286.323 974.115,283.915C975.95,282.203 977.393,278.432 978.354,276.03C979.418,265.956 982.931,256.019 984.568,246.047C985.651,244.013 986.733,241.979 987.815,239.945C988.108,238.825 987.945,237.668 987.056,236.721C986.136,235.74 985.126,235.689 983.976,235.873M1034.68,241.859C1034.44,243.188 1034.87,245.032 1035.92,245.77C1036.88,246.439 1038.81,246.445 1040.07,246.205C1041.3,245.79 1042.52,245.376 1043.74,244.962C1044.23,245.131 1044.39,245.561 1044.52,246.207C1045.82,257.342 1046.02,268.778 1047.56,280.054C1048.32,293.646 1048.32,308.131 1047.56,321.723C1046.46,341.426 1044.66,360.97 1043.57,380.703C1042.83,393.954 1043.3,407.428 1042.57,420.703C1039.31,445.93 1036.98,471.37 1035.57,496.695C1034.26,506.408 1032.95,516.121 1031.63,525.834C1030.78,535.716 1030.13,545.785 1029.57,555.701C1028.57,562.704 1027.57,569.706 1026.56,576.708C1024.46,614.36 1020.66,651.987 1018.56,689.708C1018.71,721.708 1015.76,753.708 1016.56,785.708C1016.23,787.374 1015.9,789.041 1015.56,790.708C1015.56,803.041 1015.56,815.374 1015.56,827.708C1015.23,829.377 1014.9,831.046 1014.56,832.715C1014,871.499 1016.32,910.282 1015.56,949.065C1015.9,950.735 1016.23,952.404 1016.57,954.074C1017.54,971.656 1016.58,989.442 1017.57,1007.07C1018.02,1015.18 1020.12,1023.02 1020.57,1031.07C1021.34,1044.99 1020.79,1059.15 1021.57,1073.07C1022.46,1089.18 1024.67,1104.95 1025.56,1121.07C1025.56,1126.4 1025.56,1131.74 1025.56,1137.07C1026.56,1145.07 1027.56,1153.07 1028.56,1161.07C1028.56,1165.07 1028.56,1169.07 1028.56,1173.07C1029.55,1180.69 1030.53,1188.31 1031.51,1195.93C1033.78,1222.13 1036.1,1248.83 1037.57,1275.08C1037.9,1283.74 1038.23,1292.41 1038.57,1301.08C1039.23,1313.1 1041.88,1325.05 1042.56,1337.02C1042.87,1342.39 1042.44,1347.2 1041.86,1352.9C1041.82,1354.36 1042.63,1356.07 1044,1356.04C1044.73,1356.05 1045.28,1355.73 1045.91,1355.09C1046.76,1354.21 1047.21,1353.01 1047.37,1352.02C1048.23,1346.68 1047.78,1340.12 1047.46,1334.74C1046.74,1322.56 1044.1,1310.78 1043.44,1298.71C1041.95,1271.83 1040.78,1244.46 1038.38,1217.84C1037.06,1203.13 1035.52,1188.25 1034.06,1174.02C1034.18,1168.59 1034.31,1163.17 1034.44,1157.75C1033.45,1149.78 1032.47,1141.81 1031.49,1133.84C1030.12,1117.84 1030.32,1101.57 1029.44,1085.71C1028.77,1080.37 1028.1,1075.04 1027.43,1069.7C1026.66,1055.78 1027.21,1041.62 1026.43,1027.7C1026.12,1021.96 1024.76,1016.46 1024.44,1010.71C1023.35,991.11 1024.53,971.273 1023.44,951.708C1023.1,950.042 1022.77,948.377 1022.44,946.712C1023.21,909.828 1020.98,872.945 1021.44,836.061C1021.77,834.397 1022.11,832.734 1022.44,831.07C1022.44,818.736 1022.44,806.403 1022.44,794.07C1022.77,792.403 1023.1,790.736 1023.44,789.07C1022.63,757.068 1025.58,725.076 1025.44,693.073C1027.54,655.35 1031.34,617.764 1033.43,580.083C1039.92,527.82 1043.62,476.113 1049.43,424.075C1050.17,410.8 1049.7,397.326 1050.43,384.075C1051.53,364.315 1053.34,344.85 1054.44,325.055C1055.28,309.843 1054.9,294.03 1054.43,278.799C1054.16,270.086 1052.92,261.316 1052.44,252.708C1052.17,247.9 1051.7,241.224 1050.13,236.688C1049.78,235.696 1049.02,234.464 1048.1,233.634C1047.15,232.777 1046.09,232.398 1044.96,232.575C1041.75,235.001 1036.81,238.73 1034.68,241.859M1150.16,223.033C1144.72,222.437 1139.93,226.367 1134.8,225.591C1133.97,225.9 1133.54,226.729 1133.73,227.88C1133.98,229.357 1135.34,230.486 1136.85,231.015C1138.74,231.677 1141.22,231.505 1143.09,231.151C1145.35,230.723 1148.16,229.252 1150.28,227.675C1151.23,226.962 1152.05,226.067 1151.73,224.827C1151.53,224.081 1150.86,223.368 1150.16,223.033" style="fill-rule:nonzero;"/>
    </g>
</svg>
