<?xml version="1.0" encoding="UTF-8" standalone="no"?><!DOCTYPE svg PUBLIC "-//W3C//DTD SVG 1.1//EN" "http://www.w3.org/Graphics/SVG/1.1/DTD/svg11.dtd"><svg width="100%" height="100%" viewBox="0 0 140 124" version="1.1" xmlns="http://www.w3.org/2000/svg" xmlns:xlink="http://www.w3.org/1999/xlink" xml:space="preserve" xmlns:serif="http://www.serif.com/" style="fill-rule:evenodd;clip-rule:evenodd;stroke-linejoin:round;stroke-miterlimit:2;"><path d="M2.363,21.439c-0.165,1.013 -0.217,2.05 0.031,3.062c0.432,1.77 1.359,3.611 2.388,5.334c1.042,3.534 6.605,7.127 7.114,10.335c-1.639,2.708 -3.278,5.415 -4.918,8.123c-1.559,3.134 -2.794,6.59 -3.686,9.802c-1.326,4.774 -2.866,10.188 -3.259,15.087c-0.187,2.337 0.466,5.264 0.851,7.575c0.424,2.54 1.678,5.979 3.243,8.357c2.454,3.718 6.657,7.732 9.779,10.509c0.156,1.962 0.312,3.924 0.468,5.886c0.446,2.587 1.359,6.674 2.696,9.101c1.583,2.693 4.632,4.634 7.08,6.251c4.664,2.196 8.891,2.305 13.657,2.86c4.215,0.364 8.85,-0.393 12.818,-0.747c3.893,-0.346 8.171,-1.339 12.011,-2.311c6.467,-1.636 13.433,-3.419 19.533,-5.49c5.172,-1.756 10.22,-3.325 15.01,-5.218c6.811,-2.691 13.732,-5.484 20.292,-8.926c3.164,-1.66 6.821,-4.249 9.812,-6.738c1.796,-1.494 4.784,-4.009 5.762,-5.953c0.42,-2.577 1.638,-5.175 0.772,-7.766c-0.755,-1.634 -1.481,-3.281 -2.229,-4.547c-1.276,-2.456 -5.259,-3.727 -5.171,-5.844c2.246,-2.442 4.491,-4.884 6.737,-7.325c1.439,-4.773 2.805,-9.588 5.146,-14.342c0.562,-1.822 0.884,-4.149 1.05,-6.053c0.308,-3.518 0.422,-7.857 -0.009,-11.354c-1.062,-3.032 -3.247,-6.123 -5.416,-9.13c-3.48,-3.93 -7.485,-7.446 -11.19,-9.954c-3.358,-1.989 -7.179,-3.687 -10.585,-4.262c-2.044,-0.345 -4.53,-0.779 -6.712,-0.9c-5.225,-0.292 -10.668,1.111 -15.826,0.704c-6.247,-1.685 -12.494,-3.37 -18.741,-5.055c-4.156,-0.666 -8.555,-1.231 -12.787,-1.596c-6.466,-0.559 -13.896,-1.168 -20.388,-0.804c-4.441,0.248 -9.221,1.399 -13.483,2.39c-1.712,0.398 -3.594,1.257 -5.273,1.992c-3.567,1.564 -7.003,3.457 -10.6,5.953c-1.537,1.066 -3.03,2.466 -3.963,4.05c-1.349,2.291 -1.645,4.67 -2.014,6.944m76.583,75.913c-2.128,0.841 -4.514,1.531 -6.639,1.715c-1.499,-0.053 -3.888,0.421 -4.507,-0.533c0.232,0.669 21.584,-9.488 25.478,-10.453c0.672,-0.166 1.36,0.022 1.326,0.305c-3.788,3.281 -10.59,6.1 -15.658,8.966m17.308,-9.863l-0.144,0.105l-0.286,-0.073l-0.2,-0.13l0.144,-0.105l0.287,0.073l0.199,0.13m29.78,-1.763c-4.809,3.599 -8.272,7.92 -12.618,10.232c-6.292,2.99 -12.901,6.111 -19.47,8.422c-12.009,4.019 -23.953,7.5 -35.951,10.957c-5.769,1.283 -12.171,2.19 -18.012,2.526c-3.208,0.184 -7.702,0.142 -11.098,-0.341c-2.618,-1.331 -5.569,-1.751 -7.892,-4.123c-2.134,-3.073 -3.238,-6.416 -4.453,-9.498c-0.17,-0.848 -0.284,-2.06 0.112,-2.7c0.231,-0.373 0.546,-0.519 1.026,-0.566c2.955,0.46 5.91,0.919 8.865,1.378c5.254,0.033 10.543,0.153 15.794,-0.009c3.022,-0.382 5.929,-0.939 8.877,-0.98c3.126,2.491 6.458,4.833 9.767,5.926c3.296,0.613 6.59,0.376 9.883,0.204c3.262,-1.183 6.525,-2.366 9.787,-3.549c2.254,-0.396 4.507,-0.792 6.76,-1.188c6.016,-2.526 12.033,-4.15 18.079,-7.815c3.332,-1.975 6.971,-4.867 9.79,-7.687c3.13,-3.4 5.841,-7.14 8.187,-10.219c0.676,-0.47 1.231,-0.187 1.942,0.532c1.209,1.223 2.326,2.999 2.507,4.271c0.196,1.376 -0.464,2.759 -1.882,4.227m-53.72,-24.181l0.395,0.395l-0.395,0.396l-0.395,-0.396l0.395,-0.395m0.75,-0.75l0.395,0.395l-0.395,0.396l-0.395,-0.396l0.395,-0.395m-11.067,25.195c1.437,-3.226 3.407,-6.631 5.345,-9.618c3.582,-5.214 8.739,-11.358 13.365,-15.969c4.152,0.164 8.333,0.465 12.529,1.611c4.932,1.495 10.204,3.166 14.952,5.007c2.427,1.231 5.909,2.29 7.544,4.086c0.226,0.766 -0.758,1.64 -1.655,2.316c-1.866,1.405 -3.925,2.555 -5.873,3.347c-11.995,4.878 -25.046,9.647 -37.481,13.786c-2.761,0.919 -6.012,1.781 -8.774,2.079c-0.691,0.074 -1.212,-0.125 -1.514,-0.831c-0.443,-1.789 0.987,-3.873 1.562,-5.814m11.817,-25.945l0.395,0.395l-0.395,0.396l-0.395,-0.396l0.395,-0.395m-12.898,-4.625c1.249,0.937 2.498,1.874 3.747,2.811c1.416,0.439 2.832,0.879 4.247,1.319c0.423,0.299 2.373,2.974 2.379,3.349c-3.295,4.122 -6.59,8.243 -9.885,12.365c-1.628,2.744 -3.707,6.125 -4.849,9.049c-1.622,2.941 -1.227,6.929 -2.473,9.086c-0.633,0.279 -1.17,-0.738 -1.591,-1.678c-2.092,-4.635 -3.622,-9.413 -5.281,-14.117c-0.59,-4.265 -0.984,-9.015 -0.78,-13.309c0.144,-3.023 0.92,-6.714 1.528,-9.692c0.154,-0.754 0.539,-1.431 1.251,-1.668c3.819,0.503 7.78,1.396 11.707,2.485m-18.185,-2.402c-0.494,3.219 -0.988,6.437 -1.482,9.655c-0.164,5.291 0.332,10.508 0.789,15.801c0.236,2.724 0.817,5.622 1.568,8.308c1.037,2.611 2.074,5.222 3.111,7.834c-1.058,1.245 -3.88,1.074 -5.934,1.455c-4.145,0.35 -8.535,0.165 -12.691,0.036c-2.843,-0.087 -6.941,-0.752 -9.502,-2.006c-0.909,-0.445 -1.35,-1.234 -1.335,-2.226c0.042,-2.887 1.554,-7.486 2.453,-10.341c1.441,-4.575 3.445,-8.936 5.833,-13.433c4.073,-5.704 5.965,-11.575 10.504,-17.082c0.613,-0.76 1.092,-1.079 1.853,-1.046c1.058,0.046 2.531,0.386 3.544,0.906c0.983,0.504 1.279,1.129 1.289,2.139m80.248,3.691c0.077,2.518 -0.295,4.861 -1.009,7.375c-0.346,1.125 -0.818,2.756 -1.84,3.003c-5.596,-3.173 -13.718,-5.193 -18.365,-8.168c1.366,-1.723 5.619,-2.6 8.252,-5.029c1.511,-1.334 3.166,-2.996 4.398,-4.483c1.262,-1.907 2.525,-3.813 3.787,-5.719c0.404,-0.331 0.63,-0.336 0.974,-0.029c1.993,3.788 2.962,8.786 3.803,13.05m-93.693,-9.005c0.681,0.39 1.131,0.819 1.004,1.513c-4.134,6.859 -6.876,14.434 -10.458,21.615c-2.323,6.887 -2.796,15.383 -5.485,20.859c-1.702,-1.063 -4.143,-4.563 -5.212,-6.664c-0.795,-1.893 -1.728,-3.955 -2.208,-5.915c-0.425,-1.741 -0.755,-4.338 -0.575,-6.001c0.531,-4.918 1.604,-11.554 3.281,-16.32c1.514,-4.304 4.023,-9.158 6.442,-13.315c0.4,-0.689 0.83,-1.132 1.544,-1.083c3.889,1.77 7.778,3.54 11.667,5.311m14.899,-2.631c-0.746,0.905 -2.155,0.232 -2.946,-0.259c-0.808,-0.526 0.538,-1.86 1.41,-3c1.104,-1.169 2.999,-3.56 3.519,-2.738c0.403,1.437 -0.953,4.311 -1.983,5.997m66.882,-0.608c-2.64,2.707 -5.422,4.804 -8.175,6.403c-2.025,1.175 -4.521,2.423 -6.667,2.96c-3.485,0.371 -7.234,1.637 -10.052,0.829c-0.409,-0.302 -0.006,-0.776 0.729,-1.381c4.83,-3.981 10.434,-8.575 15.576,-11.456c1.916,-1.073 4.003,-2.185 5.932,-2.719c2.185,-0.322 5.503,-1.854 6.673,-0.846c-0.002,1.671 -2.009,4.036 -4.016,6.21m-64.253,-6.92l0.395,0.395l-0.395,0.396l-0.395,-0.396l0.395,-0.395m64.105,-3.898c-1.907,0.437 -3.814,0.874 -5.72,1.311c-2.241,0.763 -4.616,2.047 -6.799,3.462c-6.17,4.569 -13.884,9.931 -18.755,15.136c-0.769,0.228 -3.306,-1.014 -3.517,-1.629c-0.208,-0.602 0.443,-1.749 1.111,-2.321c6.424,-3.905 12.848,-7.811 19.271,-11.717c3.215,-2.762 6.43,-5.524 9.644,-8.286c0.703,-0.371 1.361,-0.37 2.039,-0.019c0.943,0.489 2.779,2.234 3.064,3.125c0.129,0.402 -0.025,0.738 -0.338,0.938m7.681,-4.329c2.835,2.415 5.783,5.546 8.064,8.123c1.832,2.068 3.437,5.014 4.744,7.369c0.523,0.943 1.077,1.931 0.987,2.872c-0.868,2.297 -1.514,4.978 -3.207,7.022c-0.571,0.477 -0.874,0.153 -1.128,-0.554c-0.839,-3.191 -1.677,-6.382 -2.516,-9.573c-0.595,-1.751 -1.592,-3.59 -2.552,-5.299c-1.519,-2.704 -11.299,-14.041 -10.958,-14.488c1.255,-0.643 4.443,2.966 6.566,4.528m-42.891,-1.095c0.013,2.69 0.178,5.466 -0.057,8.148c-0.979,2.646 -0.036,5.585 -1.472,8.003c-2.727,2.394 -5.818,4.626 -8.69,6.239c-4.777,-1.011 -10.019,-1.536 -14.5,-3.374c-0.538,-0.471 -0.715,-1.105 -0.604,-1.82c0.243,-1.575 1.137,-3.506 1.821,-5.084c1.391,-3.205 3.231,-6.486 6.145,-9.675c2.405,-2.633 4.962,-4.734 7.362,-6.087c2.114,-1.192 4.32,-2.036 6.524,-2.85c0.782,-0.288 1.314,-0.396 1.827,0.131c1.193,1.828 1.689,4.189 1.644,6.369m3.514,-5.091c0.09,-0.377 1.153,-2.153 1.723,-2.569c0.851,-0.622 2.963,-0.366 4.135,-0.257c2.113,0.197 4.487,0.954 6.635,1.542c3.282,1.249 7.422,2.215 9.759,4.223c-0.538,2.004 -5.094,4.787 -7.604,6.786c-4.895,3.125 -11.114,7.293 -14.943,8.506c0.691,-5.242 0.553,-12.9 0.295,-18.231m0.591,-3.587l0.395,0.395l-0.395,0.396l-0.395,-0.396l0.395,-0.395m41.074,-1.247c2.807,2.249 6.344,4.66 8.416,7.851c1.548,2.24 3.531,5.064 4.062,7.389c0.436,1.905 0.909,3.953 0.862,5.879c-0.03,1.206 -0.6,4.291 -1.329,4.266c-1.662,-2.468 -3.324,-4.936 -4.985,-7.404c-4.773,-4.299 -9.52,-9.91 -14.596,-13.428c-0.963,-1.344 1.761,-2.757 1.324,-4.411c-0.252,-1.05 -0.503,-2.101 -0.755,-3.152c1.859,-0.137 4.714,1.741 7.001,3.01m-8.074,-4.003l0.395,0.395l-0.395,0.396l-0.395,-0.396l0.395,-0.395m-8.205,0.057c1.377,0.097 3.487,1.352 4.916,2.733c0.701,0.678 1.06,1.271 0.648,1.772c-0.411,0.5 -1.13,0.408 -1.841,0.04c-1.928,-1.346 -4.935,-2.388 -5.148,-3.984c0.071,-0.404 0.756,-0.608 1.425,-0.561m-11.996,-0.703c0.937,-0.136 1.924,-0.227 2.877,0.162c3.792,2.754 9.049,3.737 11.881,6.892c0.075,0.612 -0.619,0.796 -1.332,0.531c-2.396,-0.892 -16.223,-6.38 -16.237,-6.53c-0.047,-0.499 1.867,-0.919 2.811,-1.055m-14.456,-3.444c-0.043,0.434 -1.948,1.534 -2.744,1.554c-0.718,0.019 -1.657,-0.84 -1.539,-1.445c0.356,-0.86 4.08,-0.716 4.283,-0.109m-5.093,-1.16l0.395,0.395l-0.395,0.396l-0.395,-0.396l0.395,-0.395m-4.06,5.964c-4.065,1.974 -8.942,4.907 -13.379,8.002c-3.19,2.225 -6.26,5.009 -9.018,7.318c-3.962,4.043 -7.924,8.085 -11.886,12.128c-2.638,0.334 -5.424,-1.663 -7.986,-2.726c-2.167,-1.326 -5.482,-1.992 -6.792,-4.187c2.013,-5.041 5.022,-10.27 8.519,-15.409c1.931,-2.296 3.734,-4.763 5.828,-6.564c2.135,-1.836 5.057,-4.038 7.419,-5.043c1.95,-0.83 4.635,-2.155 6.674,-2.438c3.589,-0.499 8.268,0.091 11.826,0.757c1.776,0.333 4.259,2.076 5.862,3.117c1.188,0.772 3.616,2.212 3.912,3.302c0.176,0.647 -0.321,1.267 -0.979,1.743m-44.048,3.224c-3.753,4.47 -7.574,10.128 -9.294,14.022c-0.486,0.517 -1.015,0.55 -1.679,0.023c-1.962,-2.293 -3.593,-5.313 -4.863,-7.906c-0.415,-1.339 -0.293,-3.004 -0.07,-4.342c0.164,-0.985 0.491,-1.898 1.363,-2.892c1.298,-1.478 2.908,-2.521 4.335,-3.39c2.38,-1.449 4.966,-2.73 7.438,-3.721c4.772,-1.6 10.387,-3.762 14.535,-3.804c-0.336,-0.239 -9.284,9.053 -11.765,12.01" style="fill-rule:nonzero;"/></svg>