<?xml version="1.0" encoding="UTF-8" standalone="no"?>
<!DOCTYPE svg PUBLIC "-//W3C//DTD SVG 1.1//EN" "http://www.w3.org/Graphics/SVG/1.1/DTD/svg11.dtd">
<svg width="100%" height="100%" viewBox="0 0 452 227" version="1.1" xmlns="http://www.w3.org/2000/svg" xmlns:xlink="http://www.w3.org/1999/xlink" xml:space="preserve" xmlns:serif="http://www.serif.com/" style="fill-rule:evenodd;clip-rule:evenodd;stroke-linejoin:round;stroke-miterlimit:2;">
    <g transform="matrix(1,0,0,1,-280.602,-701.877)">
        <path d="M520.043,863.567C520.824,865.091 522.527,866.436 523.866,866.631C528.314,865.891 532.851,865.871 537.037,864.128C538.866,863.839 550.661,863.554 551.517,864.086C552.164,865.737 546.242,868.473 543.82,870.218C540.912,871.976 537.777,869.539 534.803,872.185C533.858,873.178 533.552,874.341 534.038,875.501C534.83,877.392 537.407,879.435 538.892,879.643C541.446,880 545.706,878.782 548.166,877.374C551.201,875.637 554.509,873.536 557.244,871.281C558.486,870.256 559.65,868.934 560.135,867.512C560.654,865.992 560.751,863.654 559.968,862.232C558.976,860.429 555.834,858.358 554.155,858.021C546.02,857.281 537.088,858.565 529.487,858.633C528.793,858.133 529.872,856.809 531.296,855.78C533.052,854.185 535.716,855.392 536.927,853.386C537.445,852.411 537.102,851.286 536.224,850.292C535.397,849.355 534.142,848.572 533.13,848.228C530.66,847.591 528.22,848.305 525.778,849.347C523.426,850.719 520.576,854.096 519.863,856.208C519.224,858.1 519.067,861.662 520.043,863.567M722.813,849.32C724.106,849.971 725.814,849.97 727.108,849.685C728.474,849.383 730.072,848.143 731.255,846.605C732.114,845.487 732.51,844.463 732.312,843.305C732.032,841.671 730.628,840.404 729.145,840.054C727.384,839.639 724.616,839.639 722.855,840.054C721.765,840.311 720.677,841.023 720.064,842.168C719.51,843.205 719.456,844.43 719.684,845.456C719.996,846.865 721.263,848.541 722.813,849.32M505.81,836.219C505.212,839.672 505.598,844.142 506.858,847.553C507.555,849.44 509.639,852.049 511.757,853.66C513.166,854.733 514.72,855.047 516.119,854.679C516.88,854.479 517.301,854.213 517.73,853.545C518.28,852.689 518.449,851.424 518.363,850.408C518.016,846.282 515.523,840.818 514.356,837.148C514.021,836.094 513.359,835.065 512.237,834.275C510.893,833.329 509.254,832.81 507.848,833.463C506.667,834.012 505.995,835.151 505.81,836.219M508.15,860.635C507.215,860.039 506.01,859.961 504.961,860.293C501.789,861.294 497.473,864.208 494.878,865.841C492.896,867.088 490.867,868.89 489.043,870.653C487.985,871.394 487.285,871.501 486.564,870.782C482.627,864.787 479.126,857.698 476.221,851.22C474.037,844.597 472.498,837.838 469.12,831.149C468.312,829.631 467.006,827.336 465.15,826.408C464.078,825.871 462.898,825.873 461.88,826.415C460.138,827.341 458.858,829.69 458.624,831.272C458.313,833.364 458.921,835.458 459.58,837.467C462.694,846.951 467.931,857.252 472.357,866.571C474.545,869.991 477.294,873.213 478.114,876.43C478.395,878.332 477.565,881.295 476.784,883.195C475.984,885.143 474.713,887.185 473.267,889.094C471.986,890.787 470.429,892.148 468.786,892.929C466.171,894.005 463.63,895.446 461.137,894.633C459.693,894.146 457.718,892.63 456.492,891.09C455.755,889.499 455.019,887.908 454.282,886.317C452.548,884.523 449.86,882.52 448.105,881.351C446.38,880.202 443.174,879.458 441.024,879.113C439.669,878.896 438.185,878.773 436.836,879.231C434.388,880.111 432.23,882.796 430.969,885.152C429.72,890.179 430.303,896.555 428.625,900.566C425.721,900.748 422.817,900.93 419.913,901.112C416.985,901.841 414.057,902.571 411.129,903.301C409.45,901.66 407.77,900.02 406.091,898.379C405.177,897.901 403.961,897.826 402.918,898.048C401.271,898.4 398.963,900.365 398.067,902.105C397.024,904.967 397.424,909.59 395.854,911.021C392.029,906.756 389.501,898.897 386.769,893.189C383.699,884.172 380.629,875.155 377.559,866.138C376.439,864.361 374.306,861.232 371.995,861.173C371.141,861.186 370.5,861.519 369.817,862.182C368.836,863.135 368.593,864.255 368.621,865.322C369.519,871.576 371.233,877.416 373.02,883.491C375.477,890.864 377.951,898.232 381.615,905.562C384.135,910.549 386.278,915.632 390.802,920.754C391.425,921.394 392.119,922.002 392.809,922.339C394.11,922.973 395.739,922.869 397.084,922.794C398.623,922.708 399.759,922.189 400.857,920.699C402.039,918.034 403.221,915.368 404.403,912.703C406.323,913.275 409.945,914.198 413.05,913.605C418.926,910.993 425.496,910.31 430.842,907.61C432.498,909.21 434.155,910.809 435.811,912.409C437.92,913.653 440.833,913.997 443.033,913.651C445.374,913.283 448.036,912.443 450.219,910.506C451.931,908.165 453.642,905.825 455.353,903.484C459.76,903.738 465.996,904.567 471.189,902.887C473.256,902.073 475.371,899.594 476.55,897.6C480.015,893.061 479.35,886.245 482.293,883.706C485.279,885.426 486.645,890.737 490.835,893.685C492.489,895.019 494.366,895.066 496.177,894.32C498.148,893.317 499.598,891.078 499.441,889.456C500.692,884.828 495.952,880.517 497.882,876.535C501.439,871.891 507.06,869.058 509.339,863.365C509.509,862.208 509.08,861.228 508.15,860.635M444.224,888.906C444.918,889.961 448.321,896.035 449.002,898.399C449.271,899.332 448.965,900.208 448.328,901.102C447.349,902.472 445.302,904.202 443.955,904.438C443.071,904.593 442.124,904.19 441.233,903.551C440.299,902.881 439.727,902.12 439.518,901.124C438.838,897.881 438.872,893.938 439.533,890.564C439.802,889.189 440.742,888.123 442.004,887.995C442.865,887.907 443.803,888.268 444.224,888.906M481.216,881.088L481.055,881.291L480.86,881.034L480.784,880.643L480.945,880.441L481.14,880.698L481.216,881.088M696.138,827.632C695.209,827.054 693.967,826.93 692.925,827.374C691.225,828.743 689.526,830.113 687.826,831.482C685.101,832.842 680.859,835.27 677.818,836.716C674.236,838.593 670.597,838.992 667.131,839.419C665.833,839.305 664.763,838.359 664.749,837.21C664.709,833.757 667.053,829.168 667.389,825.293C667.434,823.588 667.807,821.917 666.223,820.095C664.903,818.518 663.457,817.949 662.057,818.098C659.128,818.41 655.545,820.146 652.754,821.047C651.344,821.502 650.293,822.581 649.48,824.098C648.216,826.458 647.617,828.975 647.54,831.346C647.484,833.092 647.454,834.782 648.111,836.448C649.325,838.634 650.538,840.819 651.752,843.004C651.712,843.517 647.609,846.513 645.814,847.561C644.437,848.365 642.45,848.883 641.128,848.561C640.209,848.337 639.412,847.673 638.752,846.875C637.124,844.907 635.23,841.662 634.224,839.21C633.428,837.269 632.03,834.368 631.555,832.171C631.073,829.571 632.117,826.585 630.9,824.277C630.265,823.483 629.075,823.046 627.892,823.501C627.165,823.78 626.461,824.469 626.08,825.124C625.662,827.137 625.244,829.15 624.826,831.164C623.092,833.909 619.563,836.732 616.962,837.813C615.303,837.264 613.644,836.715 611.986,836.165C610.817,836.195 609.659,837.07 609.062,838.175C607.418,840.837 610.688,843.198 610.004,845.417C609.672,847.64 609.461,850.007 608.669,852.158C608.324,853.093 607.757,854.082 606.929,854.314C606.089,854.55 605.521,853.889 605.01,852.984C603.503,849.769 602.23,846.266 599.901,843.084C599.141,842.045 598.221,841.192 597.156,840.689C596.165,840.221 594.971,839.912 593.936,840.074C593.122,840.201 592.51,840.493 591.834,841.162C590.237,842.785 590.506,844.75 590.675,846.469C593.564,851.99 595.497,857.127 599.77,862.691C600.719,863.737 601.777,864.822 602.823,865.339C604.301,866.07 606.606,866.018 608.118,865.685C609.914,865.29 612.951,862.557 613.97,860.57C615.55,855.887 614.291,849.752 615.379,846.152C617.3,845.949 619.221,845.745 621.142,845.541C622.36,844.925 623.578,844.308 624.796,843.691C627.654,846.166 629.247,852.818 634.785,856.375C635.85,857.139 636.815,857.579 637.866,857.737C640.396,858.116 643.556,858.055 646.088,857.641C648.142,857.305 650.203,856.468 652.237,855.082C654.878,852.826 657.52,850.569 660.162,848.313C663.496,848.442 666.83,848.571 670.164,848.701C674.838,847.509 679.405,847.497 684.19,844.495C686.917,843.047 691.142,840.655 693.287,838.417C694.468,837.186 696.047,834.481 697,832.494C697.479,831.495 697.584,830.228 697.316,829.246C697.109,828.488 696.833,828.064 696.138,827.632M660.222,830.341C659.945,831.44 658.425,834.011 657.962,834.115C657.414,834.238 657.273,831.76 657.535,830.532C657.767,829.446 658.83,828.208 659.678,828.428C660.256,828.578 660.44,829.479 660.222,830.341M404.12,801.052C402.804,800.746 401.134,800.799 399.865,801.308C393.682,806.116 387.774,809.522 381.746,813.412C372.56,820.273 362.762,827.753 354.718,835.102C344.027,844.869 331.935,856.336 322.738,866.092C312.529,880.125 297.46,894.008 287.615,908.202C285.522,911.209 282.204,917.418 281.02,921.264C280.704,922.29 280.516,923.374 280.641,924.43C280.762,925.462 281.239,926.687 282.062,927.571C282.637,928.189 283.208,928.535 283.961,928.666C285.063,928.857 286.165,928.454 287.029,927.58C288.623,924.584 290.218,921.589 291.812,918.593C295.135,913.742 298.79,909.079 302.519,904.638C311.55,893.881 320.932,882.433 329.692,872.842C332.013,870.3 336.753,865.396 339.675,863.698C341.708,866.643 343.283,873.098 344.924,877.499C347.468,886.183 348.558,894.852 351.601,903.501C353.105,907.777 355.477,912.53 357.467,916.559C359.639,920.197 360.764,924.036 364.784,927.638C365.858,928.492 366.871,928.805 367.995,928.801C369.079,928.797 370.255,928.483 371.188,927.556C371.874,926.872 372.121,926.306 372.312,925.481C372.612,924.179 372.591,922.456 371.993,921.217C370.956,919.874 369.92,918.532 368.883,917.189C365.833,911.648 363.033,905.902 360.787,900.216C357.771,890.551 354.756,880.886 351.74,871.221C350.768,866.571 346.705,861.991 346.088,857.436C349.642,852.643 355.718,847.384 360.293,842.864C375.546,831.606 390.965,817.593 406.301,807.409C407.114,806.504 407.503,805.479 407.305,804.319C407.166,803.503 406.824,802.828 406.19,802.183C405.509,801.489 404.941,801.244 404.12,801.052M685.685,765.203C685.108,767.609 685.358,770.992 685.748,773.401C686.785,779.8 689.476,787.458 692.279,793.512C697.853,804.745 704.744,815.32 711.266,826.665C712.078,827.722 712.881,828.506 713.961,828.678C714.662,828.789 715.49,828.649 716.098,828.265C716.815,827.812 717.105,827.259 717.301,826.535C717.805,824.668 717.552,822.19 717.379,820.331C717.189,818.296 716.227,816.186 715.338,814.177C711.43,805.348 705.241,797.784 701.139,789.213C698.062,781.269 695.415,773.207 692.998,765.1C692.391,764.085 691.291,762.876 690.14,762.398C689.404,762.093 688.591,762.086 687.841,762.431C686.646,762.982 685.93,764.178 685.685,765.203M478.697,705.159C476.19,715.464 474.441,726.789 472.752,737.338C472.621,740.088 472.116,742.757 473.062,745.586C473.438,746.263 474.107,746.927 474.817,747.3C475.92,747.881 477.102,747.857 478.153,747.328C479.976,746.412 481.336,744.114 482.119,742.549C484.107,737.423 483.714,732.422 485.242,727.432C485.338,724.143 485.433,720.854 485.529,717.565C485.666,716.85 485.844,716.327 486.329,715.927C486.816,715.525 487.221,715.517 487.708,715.916C489.004,716.98 491.373,723.998 492.13,726.48C492.5,728.489 492.869,730.498 493.239,732.508C494.892,735.518 496.546,738.528 498.199,741.538C502.225,751.305 506.976,762.265 510.574,772.493C512.719,778.59 513.676,786.234 515.881,792.584C516.422,794.143 518.083,796.493 519.828,797.338C520.885,797.851 522.081,797.875 523.182,797.298C524.349,796.687 525.06,795.594 525.316,794.512C525.628,793.2 525.492,791.666 525.379,790.361C524.706,783.137 519.954,776.18 519.749,769.265C516.33,758.425 511.114,746.361 506.596,736.196C502.743,729.278 498.975,722.085 496.974,715.82C497.227,715.124 498.117,714.946 499.047,715.115C507.567,718.254 515.976,720.929 524.907,726.695C526.619,726.871 528.589,727.129 530.19,725.554C530.873,724.866 531.124,724.293 531.315,723.453C531.556,722.398 531.473,721.186 530.972,720.25C529.138,717.846 525.679,715.706 523.212,714.248C518.326,711.652 513.183,709.776 508.142,707.971C501.468,705.582 494.833,703.819 488.057,702.319C485.653,701.936 483.277,701.509 480.788,702.422C479.671,703.028 478.955,704.102 478.697,705.159" style="fill-rule:nonzero;"/>
    </g>
</svg>
