<?xml version="1.0" encoding="UTF-8" standalone="no"?>
<!DOCTYPE svg PUBLIC "-//W3C//DTD SVG 1.1//EN" "http://www.w3.org/Graphics/SVG/1.1/DTD/svg11.dtd">
<svg width="100%" height="100%" viewBox="0 0 246 99" version="1.1" xmlns="http://www.w3.org/2000/svg" xmlns:xlink="http://www.w3.org/1999/xlink" xml:space="preserve" xmlns:serif="http://www.serif.com/" style="fill-rule:evenodd;clip-rule:evenodd;stroke-linecap:square;stroke-linejoin:round;stroke-miterlimit:1.5;">
    <g transform="matrix(1.00005,3.72966e-16,4.14599e-16,-0.992312,-191.358,285.674)">
        <g transform="matrix(72,0,0,72,197.527,237.64)">
            <path d="M0.035,-0.667L0.248,-0.667L0.248,-0.44L0.367,-0.44L0.367,-0.667L0.581,-0.667L0.581,-0L0.367,-0L0.367,-0.247L0.248,-0.247L0.248,-0L0.035,-0L0.035,-0.667Z" style="fill:rgb(203,203,203);fill-rule:nonzero;"/>
        </g>
        <g transform="matrix(72,0,0,72,241.879,237.64)">
            <rect x="0.035" y="-0.667" width="0.226" height="0.667" style="fill:rgb(203,203,203);fill-rule:nonzero;"/>
        </g>
        <g transform="matrix(72,0,0,72,263.191,237.64)">
            <path d="M0.035,-0.667L0.21,-0.667L0.394,-0.41L0.394,-0.667L0.603,-0.667L0.603,-0L0.427,-0L0.244,-0.256L0.244,-0L0.035,-0L0.035,-0.667Z" style="fill:rgb(203,203,203);fill-rule:nonzero;"/>
        </g>
        <g transform="matrix(72,0,0,72,309.127,237.64)">
            <path d="M0.46,-0.44C0.448,-0.451 0.433,-0.459 0.415,-0.465C0.397,-0.47 0.379,-0.473 0.362,-0.473C0.343,-0.473 0.325,-0.47 0.309,-0.463C0.293,-0.456 0.279,-0.446 0.268,-0.434C0.256,-0.421 0.247,-0.406 0.24,-0.389C0.233,-0.372 0.23,-0.353 0.23,-0.333C0.23,-0.313 0.234,-0.294 0.241,-0.277C0.248,-0.26 0.258,-0.245 0.271,-0.233C0.284,-0.22 0.299,-0.211 0.316,-0.204C0.333,-0.197 0.351,-0.193 0.37,-0.193C0.393,-0.193 0.413,-0.198 0.432,-0.208C0.451,-0.217 0.467,-0.23 0.48,-0.247L0.42,-0.247L0.42,-0.387L0.677,-0.387L0.677,-0.165C0.662,-0.138 0.643,-0.113 0.622,-0.091C0.601,-0.068 0.577,-0.049 0.551,-0.033C0.524,-0.017 0.496,-0.005 0.465,0.004C0.434,0.013 0.403,0.017 0.37,0.017C0.322,0.017 0.277,0.008 0.234,-0.01C0.191,-0.028 0.154,-0.053 0.123,-0.084C0.091,-0.115 0.066,-0.152 0.048,-0.195C0.029,-0.238 0.02,-0.284 0.02,-0.333C0.02,-0.381 0.029,-0.426 0.046,-0.469C0.063,-0.512 0.087,-0.549 0.118,-0.581C0.148,-0.612 0.184,-0.637 0.226,-0.656C0.267,-0.674 0.312,-0.683 0.36,-0.683C0.397,-0.683 0.43,-0.679 0.457,-0.672C0.484,-0.665 0.507,-0.656 0.526,-0.647C0.548,-0.636 0.566,-0.625 0.581,-0.612L0.46,-0.44Z" style="fill:rgb(203,203,203);fill-rule:nonzero;"/>
        </g>
        <g transform="matrix(72,0,0,72,359.311,237.64)">
            <path d="M0.035,-0.667L0.428,-0.667L0.428,-0.492L0.248,-0.492L0.248,-0.418L0.425,-0.418L0.425,-0.252L0.248,-0.252L0.248,-0.175L0.435,-0.175L0.435,-0L0.035,-0L0.035,-0.667Z" style="fill:rgb(203,203,203);fill-rule:nonzero;"/>
        </g>
        <g transform="matrix(72,0,0,72,392.431,237.64)">
            <path d="M0.035,-0L0.035,-0.667L0.22,-0.667C0.283,-0.667 0.339,-0.66 0.388,-0.646C0.437,-0.632 0.478,-0.611 0.512,-0.583C0.545,-0.555 0.571,-0.52 0.589,-0.479C0.606,-0.437 0.615,-0.389 0.615,-0.334C0.615,-0.279 0.606,-0.231 0.589,-0.19C0.571,-0.148 0.545,-0.113 0.512,-0.085C0.478,-0.057 0.437,-0.036 0.388,-0.022C0.339,-0.007 0.283,-0 0.22,-0L0.035,-0ZM0.248,-0.19C0.298,-0.19 0.337,-0.202 0.364,-0.226C0.391,-0.249 0.405,-0.285 0.405,-0.334C0.405,-0.383 0.391,-0.419 0.364,-0.442C0.337,-0.465 0.298,-0.477 0.248,-0.477L0.248,-0.19Z" style="fill:rgb(203,203,203);fill-rule:nonzero;"/>
        </g>
    </g>
    <g transform="matrix(1,0,0,0.97783,-197.067,-176.983)">
        <path d="M205.767,183.888L205.767,278.67" style="fill:none;stroke:black;stroke-width:4.04px;"/>
    </g>
    <g transform="matrix(1,0,0,1,-153.762,-167.081)">
        <circle cx="162.461" cy="217.165" r="6.699" style="fill:white;stroke:black;stroke-width:4px;stroke-linecap:round;"/>
    </g>
</svg>
